<svg width="48" height="48" viewBox="0 0 48 48" fill="none" xmlns="http://www.w3.org/2000/svg">
<circle cx="24" cy="24" r="24" fill="#BC6C25"/>
<g clip-path="url(#clip0_3_37)">
<path d="M31.5645 27.7424L29.3317 25.5095C28.5342 24.7121 27.1786 25.0311 26.8596 26.0678C26.6203 26.7855 25.8229 27.1842 25.1052 27.0247C23.5103 26.626 21.3572 24.5526 20.9585 22.878C20.7192 22.1602 21.1977 21.3628 21.9154 21.1236C22.9521 20.8046 23.2711 19.449 22.4736 18.6515L20.2408 16.4187C19.6028 15.8604 18.6459 15.8604 18.0877 16.4187L16.5725 17.9338C15.0574 19.5287 16.732 23.7552 20.48 27.5032C24.228 31.2511 28.4545 33.0056 30.0494 31.4106L31.5645 29.8955C32.1228 29.2575 32.1228 28.3006 31.5645 27.7424Z" fill="white"/>
</g>
<defs>
<clipPath id="clip0_3_37">
<rect width="16" height="16" fill="white" transform="translate(16 16)"/>
</clipPath>
</defs>
</svg>
