<svg width="198" height="88" viewBox="0 0 198 88" fill="none" xmlns="http://www.w3.org/2000/svg">
<g clip-path="url(#clip0_98_51)">
<path fill-rule="evenodd" clip-rule="evenodd" d="M114.95 42.5061C127.311 42.5061 137.394 52.5658 137.394 64.8999C137.394 77.234 127.311 87.2937 114.95 87.2937C102.588 87.2937 92.5062 77.234 92.5062 64.8999C92.5062 52.5658 102.588 42.5061 114.95 42.5061Z" fill="#D9DADA"/>
<mask id="mask0_98_51" style="mask-type:luminance" maskUnits="userSpaceOnUse" x="92" y="42" width="46" height="46">
<path d="M114.95 42.5061C127.311 42.5061 137.394 52.5658 137.394 64.8999C137.394 77.234 127.311 87.2937 114.95 87.2937C102.588 87.2937 92.5062 77.234 92.5062 64.8999C92.5062 52.5658 102.588 42.5061 114.95 42.5061Z" fill="white"/>
</mask>
<g mask="url(#mask0_98_51)">
<path fill-rule="evenodd" clip-rule="evenodd" d="M92.2177 64.5554H136.875V65.0847H92.2177V64.5554Z" fill="#FEFEFE"/>
<path fill-rule="evenodd" clip-rule="evenodd" d="M92.2177 66.0149H136.875V66.5441H92.2177V66.0149Z" fill="#FEFEFE"/>
<path fill-rule="evenodd" clip-rule="evenodd" d="M92.2177 67.4739H136.875V68.0031H92.2177V67.4739Z" fill="#FEFEFE"/>
<path fill-rule="evenodd" clip-rule="evenodd" d="M92.2177 68.9329H136.875V69.4621H92.2177V68.9329Z" fill="#FEFEFE"/>
<path fill-rule="evenodd" clip-rule="evenodd" d="M92.2177 70.3918H136.875V70.9211H92.2177V70.3918Z" fill="#FEFEFE"/>
<path fill-rule="evenodd" clip-rule="evenodd" d="M92.2177 71.8511H136.875V72.3803H92.2177V71.8511Z" fill="#FEFEFE"/>
<path fill-rule="evenodd" clip-rule="evenodd" d="M92.2177 73.311H136.875V73.8403H92.2177V73.311Z" fill="#FEFEFE"/>
<path fill-rule="evenodd" clip-rule="evenodd" d="M92.2177 74.7708H136.875V75.3H92.2177V74.7708Z" fill="#FEFEFE"/>
<path fill-rule="evenodd" clip-rule="evenodd" d="M92.2177 76.2297H136.875V76.759H92.2177V76.2297Z" fill="#FEFEFE"/>
<path fill-rule="evenodd" clip-rule="evenodd" d="M92.2177 77.6887H136.875V78.218H92.2177V77.6887Z" fill="#FEFEFE"/>
<path fill-rule="evenodd" clip-rule="evenodd" d="M92.2177 79.1477H136.875V79.6769H92.2177V79.1477Z" fill="#FEFEFE"/>
<path fill-rule="evenodd" clip-rule="evenodd" d="M92.2177 80.6067H136.875V81.1359H92.2177V80.6067Z" fill="#FEFEFE"/>
<path fill-rule="evenodd" clip-rule="evenodd" d="M92.2177 82.0662H136.875V82.5948H92.2177V82.0662Z" fill="#FEFEFE"/>
<path fill-rule="evenodd" clip-rule="evenodd" d="M92.2177 83.5251H136.875V84.0544H92.2177V83.5251Z" fill="#FEFEFE"/>
<path fill-rule="evenodd" clip-rule="evenodd" d="M92.2177 84.9841H136.875V85.5134H92.2177V84.9841Z" fill="#FEFEFE"/>
<path fill-rule="evenodd" clip-rule="evenodd" d="M92.2177 86.4431H136.875V86.9724H92.2177V86.4431Z" fill="#FEFEFE"/>
</g>
<path fill-rule="evenodd" clip-rule="evenodd" d="M32.975 43.9378L17.0356 87.9739H24.324L36.9735 50.4854H37.0762L39.1268 57.8512H36.461L34.5639 64.2963H41.5872L44.7655 73.9126H52.0456L40.5102 43.9378H32.9744H32.975ZM70.194 31.2837V52.8383H63.4777V59.2834H70.194V73.9126H77.4735V31.2837H70.194ZM54.0962 43.9378V73.9126H61.3764V43.9378H54.0962ZM80.0372 43.9378V50.3828H86.496V73.9126H93.7761V50.3828H100.236V43.9378H80.0372ZM111.822 43.9378L95.3011 88.0001H102.59L115.82 50.4854H115.923L117.974 57.8512H115.308L113.411 64.2963H120.434L123.612 73.9126H130.892L119.357 43.9378H111.821H111.822ZM132.943 73.9126H140.223V50.3316C140.94 50.0759 142.324 49.8709 143.197 49.8709C145.094 49.8709 146.683 50.9455 146.683 52.6846C146.683 54.3724 145.401 55.4464 143.812 55.4464H142.121V61.3801C143.146 61.4826 144.223 61.5845 144.53 61.5845C150.324 61.5845 153.963 58.2088 153.963 52.684C153.963 46.2902 148.221 43.4252 142.121 43.4252C138.635 43.4252 134.38 43.8859 132.944 44.4486V73.912L132.943 73.9126ZM156.833 73.9126H175.084V67.4676H164.113V59.2834H171.033V52.8383H164.113V50.3828H173.187V43.9378H156.833V73.9126H156.833ZM198 67.0581C197.231 67.4163 194.77 67.672 192.515 67.672C187.542 67.672 183.492 63.7331 183.492 58.9252C183.492 53.9123 187.542 49.8709 192.515 49.8709C193.95 49.8709 195.539 50.0759 196.052 50.3828V43.9378C195.488 43.6309 193.899 43.4258 192.515 43.4258C183.749 43.4258 176.212 50.3828 176.212 58.9252C176.212 67.672 183.748 74.4329 192.515 74.4329C194.822 74.4329 197.282 74.2279 198 73.9126V67.0581Z" fill="#D5292C"/>
<path fill-rule="evenodd" clip-rule="evenodd" d="M70.7608 31.3003H196.228V32.807H70.7608V31.3003Z" fill="#D5292C"/>
<path fill-rule="evenodd" clip-rule="evenodd" d="M19.5544 86.4868H101.12V87.9935H19.5544V86.4868Z" fill="#D5292C"/>
<path fill-rule="evenodd" clip-rule="evenodd" d="M83.915 35.6303V41.1903H83.2048V36.2966H80.4541V41.1903H79.7439V35.6303H83.915ZM87.9869 41.1975H87.2767V35.6375H89.7245C90.0411 35.6375 90.3177 35.7048 90.5548 35.8377C90.7907 35.9718 90.9729 36.1584 91.099 36.3968C91.225 36.6357 91.2871 36.9039 91.2871 37.2031C91.2871 37.6459 91.1587 38.0316 90.9012 38.3594C90.6438 38.6871 90.252 38.851 89.7251 38.851H87.9875V41.1969L87.9869 41.1975ZM87.9869 38.2086H89.482C90.1958 38.2086 90.553 37.876 90.553 37.2109C90.553 36.5904 90.206 36.2805 89.5125 36.2805H87.9863V38.2086H87.9869ZM96.6994 41.3369C96.2341 41.3369 95.8351 41.2451 95.503 41.0634C95.1721 40.881 94.9063 40.6438 94.708 40.3506C94.5109 40.0573 94.3693 39.7444 94.2827 39.4071C94.1973 39.071 94.1543 38.7402 94.1543 38.4106C94.1543 38.0804 94.1973 37.7473 94.2827 37.4117C94.3699 37.0744 94.5115 36.7615 94.708 36.4683C94.9051 36.1756 95.1703 35.9372 95.503 35.7555C95.8369 35.5731 96.2353 35.4819 96.6994 35.4819C97.1653 35.4819 97.5638 35.5725 97.8965 35.7531C98.2286 35.9343 98.4944 36.1715 98.6921 36.4659C98.8892 36.7597 99.0308 37.075 99.118 37.4117C99.2034 37.7473 99.2464 38.0804 99.2464 38.4106C99.2464 38.7402 99.2034 39.0716 99.118 39.4071C99.0308 39.7438 98.8892 40.0573 98.6909 40.3518C98.4926 40.6444 98.2274 40.8822 97.8965 41.064C97.5649 41.2463 97.1665 41.3363 96.6994 41.3363V41.3369ZM96.7012 36.1488C96.3285 36.1488 96.0018 36.2454 95.7246 36.4379C95.4468 36.631 95.2342 36.8986 95.0861 37.2407C94.9379 37.5828 94.8651 37.9726 94.8651 38.41C94.8651 38.8475 94.9397 39.2372 95.0873 39.5805C95.2354 39.9226 95.4492 40.1914 95.727 40.3833C96.0053 40.5753 96.3297 40.6712 96.7012 40.6712C97.0716 40.6712 97.3959 40.5758 97.6743 40.3833C97.952 40.1914 98.1653 39.9226 98.314 39.5805C98.4615 39.2372 98.5362 38.8475 98.5362 38.41C98.5362 37.972 98.4627 37.5828 98.3146 37.2407C98.167 36.8986 97.9538 36.631 97.6766 36.4379C97.3989 36.246 97.0728 36.1488 96.7012 36.1488ZM103.036 40.1211H103.052L105.687 35.6303H106.529V41.1903H105.841V36.6995H105.826L103.147 41.1903H102.348V35.6303H103.036V40.1211ZM111.708 37.9761C112.043 37.9761 112.343 37.9016 112.608 37.7514C112.874 37.603 113.006 37.3915 113.006 37.1179C113.006 36.7424 112.88 36.4862 112.626 36.3473C112.375 36.209 112.085 36.1399 111.758 36.1399C111.4 36.1399 111.091 36.2287 110.828 36.4081C110.566 36.5875 110.426 36.8753 110.409 37.2723H109.74C109.74 37.0208 109.801 36.7597 109.923 36.4897C110.047 36.2191 110.265 35.9867 110.579 35.7906C110.895 35.5957 111.314 35.498 111.84 35.498C112.196 35.498 112.516 35.5636 112.801 35.6941C113.084 35.8258 113.307 36.0106 113.464 36.2489C113.622 36.4867 113.702 36.7585 113.702 37.0637C113.702 37.4159 113.599 37.6847 113.395 37.8706C113.19 38.0566 112.97 38.1752 112.736 38.2253C112.912 38.2551 113.089 38.3278 113.268 38.4398C113.446 38.553 113.597 38.7056 113.719 38.8975C113.84 39.0912 113.901 39.3129 113.901 39.5645C113.901 39.9584 113.801 40.2886 113.599 40.5574C113.398 40.8256 113.139 41.0228 112.821 41.1498C112.505 41.2749 112.171 41.3381 111.818 41.3381C111.373 41.3381 111.003 41.2672 110.71 41.1254C110.417 40.9835 110.195 40.8077 110.042 40.5973C109.891 40.3869 109.786 40.1765 109.731 39.965C109.674 39.7546 109.646 39.5639 109.646 39.3958H110.313C110.313 39.8565 110.457 40.1885 110.744 40.3911C111.031 40.5937 111.386 40.6956 111.812 40.6956C112.015 40.6956 112.223 40.6569 112.436 40.58C112.648 40.5025 112.826 40.381 112.969 40.2147C113.113 40.0496 113.183 39.8428 113.183 39.5966C113.183 39.2259 113.035 38.9601 112.738 38.8004C112.441 38.6389 112.08 38.559 111.657 38.559C111.445 38.559 111.272 38.5644 111.135 38.5757V37.9624C111.262 37.9726 111.453 37.9779 111.707 37.9779L111.708 37.9761ZM117.013 35.6297H119.331C119.647 35.6297 119.917 35.6929 120.141 35.818C120.364 35.9432 120.533 36.1107 120.647 36.3223C120.76 36.5338 120.817 36.7704 120.817 37.0297C120.817 37.5715 120.583 37.9588 120.114 38.1925C120.39 38.3111 120.617 38.4619 120.796 38.6478C120.977 38.8326 121.066 39.133 121.066 39.5472C121.066 39.8505 120.997 40.1253 120.859 40.3744C120.721 40.6235 120.517 40.8226 120.245 40.968C119.973 41.1152 119.65 41.1885 119.279 41.1885H117.013V35.6285V35.6297ZM117.723 37.9827H119.006C119.366 37.9827 119.641 37.9141 119.828 37.7783C120.015 37.6418 120.108 37.4105 120.108 37.0851C120.108 36.8163 120.022 36.6143 119.85 36.4772C119.678 36.3407 119.4 36.2722 119.015 36.2722H117.724V37.9827H117.723ZM117.723 40.5472H119.24C119.604 40.5472 119.881 40.4567 120.071 40.2761C120.26 40.0967 120.356 39.8475 120.356 39.5317C120.356 38.9083 119.945 38.596 119.123 38.596H117.723V40.5472ZM126.436 41.3369C125.97 41.3369 125.571 41.2451 125.239 41.0634C124.908 40.881 124.643 40.6438 124.444 40.3506C124.247 40.0573 124.106 39.7444 124.019 39.4071C123.934 39.071 123.891 38.7402 123.891 38.4106C123.891 38.0804 123.934 37.7473 124.019 37.4117C124.106 37.0744 124.248 36.7615 124.444 36.4683C124.641 36.1756 124.907 35.9372 125.239 35.7555C125.573 35.5731 125.972 35.4819 126.436 35.4819C126.902 35.4819 127.3 35.5725 127.633 35.7531C127.965 35.9343 128.23 36.1715 128.428 36.4659C128.626 36.7597 128.767 37.075 128.854 37.4117C128.94 37.7473 128.983 38.0804 128.983 38.4106C128.983 38.7402 128.94 39.0716 128.854 39.4071C128.767 39.7438 128.626 40.0573 128.427 40.3518C128.229 40.6444 127.964 40.8822 127.633 41.064C127.301 41.2463 126.903 41.3363 126.436 41.3363V41.3369ZM126.438 36.1488C126.065 36.1488 125.738 36.2454 125.461 36.4379C125.183 36.631 124.971 36.8986 124.822 37.2407C124.674 37.5828 124.601 37.9726 124.601 38.41C124.601 38.8475 124.676 39.2372 124.824 39.5805C124.972 39.9226 125.186 40.1914 125.463 40.3833C125.742 40.5753 126.066 40.6712 126.438 40.6712C126.808 40.6712 127.132 40.5758 127.411 40.3833C127.688 40.1914 127.902 39.9226 128.05 39.5805C128.198 39.2372 128.273 38.8475 128.273 38.41C128.273 37.972 128.199 37.5828 128.051 37.2407C127.903 36.8986 127.69 36.631 127.413 36.4379C127.135 36.246 126.809 36.1488 126.438 36.1488ZM132.157 41.1897V42.2273H131.514V40.5234H131.864C131.989 40.3082 132.078 40.083 132.131 39.8487C132.183 39.6139 132.209 39.3392 132.209 39.0215V35.6297H135.721V40.5234H136.126V42.2273H135.482V41.1897H132.157ZM132.538 40.524H135.01V36.296H132.884V39.0215C132.884 39.5907 132.769 40.0913 132.538 40.5234V40.524ZM142.773 37.3027C142.685 36.8676 142.499 36.5654 142.218 36.3985C141.937 36.2323 141.63 36.1488 141.296 36.1488C140.972 36.1488 140.679 36.2329 140.418 36.4003C140.157 36.5678 139.951 36.8169 139.8 37.1501C139.65 37.4821 139.573 37.8832 139.573 38.3558C139.573 39.0632 139.71 39.627 139.984 40.0436C140.258 40.462 140.705 40.6706 141.32 40.6706C141.507 40.6706 141.7 40.6289 141.9 40.5455C142.099 40.4626 142.285 40.3077 142.455 40.0794C142.627 39.8523 142.749 39.54 142.823 39.1449H143.513C143.426 39.7724 143.234 40.2498 142.937 40.5747C142.639 40.9013 142.339 41.1093 142.034 41.2004C141.728 41.2904 141.453 41.3357 141.209 41.3357C140.898 41.3357 140.602 41.2803 140.32 41.1677C140.04 41.0568 139.788 40.881 139.565 40.6438C139.34 40.4048 139.163 40.0967 139.034 39.717C138.905 39.3374 138.84 38.891 138.84 38.3772C138.84 37.9487 138.896 37.5566 139.009 37.2013C139.12 36.8449 139.284 36.5398 139.497 36.2835C139.709 36.0266 139.969 35.8294 140.273 35.6899C140.577 35.5498 140.918 35.4807 141.298 35.4807C141.727 35.4807 142.1 35.5647 142.415 35.7322C142.731 35.9015 142.975 36.1232 143.149 36.4009C143.322 36.6787 143.427 36.9778 143.463 37.3003H142.773V37.3027ZM145.744 35.6297H150.02V36.2954H148.238V41.1891H147.528V36.2954H145.744V35.6297H145.744ZM152.921 35.6297H155.239C155.554 35.6297 155.824 35.6929 156.048 35.818C156.272 35.9432 156.441 36.1107 156.554 36.3223C156.668 36.5338 156.725 36.7704 156.725 37.0297C156.725 37.5715 156.491 37.9588 156.022 38.1925C156.298 38.3111 156.525 38.4619 156.704 38.6478C156.884 38.8326 156.974 39.133 156.974 39.5472C156.974 39.8505 156.905 40.1253 156.766 40.3744C156.628 40.6235 156.424 40.8226 156.152 40.968C155.881 41.1152 155.557 41.1885 155.186 41.1885H152.92V35.6285L152.921 35.6297ZM153.631 37.9827H154.914C155.274 37.9827 155.549 37.9141 155.735 37.7783C155.922 37.6418 156.016 37.4105 156.016 37.0851C156.016 36.8163 155.93 36.6143 155.758 36.4772C155.586 36.3407 155.308 36.2722 154.923 36.2722H153.632V37.9827H153.631ZM153.631 40.5472H155.148C155.511 40.5472 155.789 40.4567 155.979 40.2761C156.168 40.0967 156.263 39.8475 156.263 39.5317C156.263 38.9083 155.853 38.596 155.031 38.596H153.631V40.5472H153.631ZM163.935 41.1897H160.05V35.6297H163.885V36.2954H160.76V37.9976H163.642V38.6633H160.76V40.5228H163.935V41.1885V41.1897ZM170.641 35.6297H171.351V41.1897H170.641V38.596H167.89V41.1897H167.18V35.6297H167.89V37.9296H170.641V35.6297ZM178.174 35.6297H178.884V41.1897H178.174V38.596H175.423V41.1897H174.713V35.6297H175.423V37.9296H178.174V35.6297ZM184.539 41.3369C184.074 41.3369 183.675 41.2451 183.343 41.0634C183.012 40.881 182.746 40.6438 182.548 40.3506C182.351 40.0573 182.209 39.7444 182.123 39.4071C182.037 39.071 181.994 38.7402 181.994 38.4106C181.994 38.0804 182.037 37.7473 182.123 37.4117C182.21 37.0744 182.351 36.7615 182.548 36.4683C182.745 36.1756 183.01 35.9372 183.343 35.7555C183.677 35.5731 184.075 35.4819 184.539 35.4819C185.005 35.4819 185.404 35.5725 185.736 35.7531C186.069 35.9343 186.334 36.1715 186.532 36.4659C186.729 36.7597 186.871 37.075 186.958 37.4117C187.043 37.7473 187.086 38.0804 187.086 38.4106C187.086 38.7402 187.043 39.0716 186.958 39.4071C186.871 39.7438 186.729 40.0573 186.531 40.3518C186.333 40.6444 186.067 40.8822 185.736 41.064C185.405 41.2463 185.007 41.3363 184.539 41.3363V41.3369ZM184.541 36.1488C184.168 36.1488 183.842 36.2454 183.565 36.4379C183.287 36.631 183.074 36.8986 182.926 37.2407C182.778 37.5828 182.705 37.9726 182.705 38.41C182.705 38.8475 182.78 39.2372 182.927 39.5805C183.075 39.9226 183.289 40.1914 183.567 40.3833C183.845 40.5753 184.17 40.6712 184.541 40.6712C184.912 40.6712 185.236 40.5758 185.514 40.3833C185.792 40.1914 186.005 39.9226 186.154 39.5805C186.301 39.2372 186.376 38.8475 186.376 38.41C186.376 37.972 186.303 37.5828 186.155 37.2407C186.007 36.8986 185.794 36.631 185.517 36.4379C185.239 36.246 184.913 36.1488 184.541 36.1488ZM191.752 38.6967V39.3946H189.954V38.6967H191.752Z" fill="#2B2A29"/>
<path fill-rule="evenodd" clip-rule="evenodd" d="M29.6515 83.5683H28.9449V77.9433H29.6515V80.6688L32.1907 77.9433H33.1692L30.9866 80.2152L33.2289 83.5683H32.309L30.4752 80.7468L29.6515 81.5943V83.5683ZM36.2639 83.7173C35.8003 83.7173 35.4037 83.6243 35.0728 83.4401C34.7431 83.256 34.4791 83.0158 34.282 82.7196C34.0866 82.4228 33.9451 82.1057 33.8591 81.7654C33.7736 81.4257 33.7306 81.0901 33.7306 80.757C33.7306 80.4226 33.7736 80.0859 33.8591 79.7462C33.9451 79.4053 34.0866 79.0882 34.282 78.792C34.4779 78.4958 34.7419 78.255 35.0728 78.0708C35.4049 77.8867 35.8015 77.7943 36.2639 77.7943C36.7274 77.7943 37.124 77.8861 37.4549 78.0685C37.7858 78.2514 38.0499 78.491 38.247 78.789C38.4423 79.087 38.5839 79.4053 38.6699 79.7462C38.7553 80.0859 38.7977 80.4226 38.7977 80.757C38.7977 81.0895 38.7553 81.4257 38.6699 81.7654C38.5833 82.1057 38.4423 82.4228 38.2452 82.7208C38.0481 83.017 37.784 83.2572 37.4543 83.4413C37.1246 83.6255 36.728 83.7173 36.2633 83.7173H36.2639ZM36.2651 78.4684C35.8941 78.4684 35.5692 78.5661 35.2926 78.761C35.0167 78.9571 34.8052 79.2271 34.6577 79.5733C34.5107 79.919 34.4373 80.3136 34.4373 80.7564C34.4373 81.1986 34.5113 81.5931 34.6589 81.9406C34.8058 82.2869 35.0191 82.5587 35.295 82.7529C35.5728 82.9472 35.8947 83.0438 36.2651 83.0438C36.6336 83.0438 36.9562 82.9472 37.2339 82.7529C37.5099 82.5587 37.7231 82.2869 37.8701 81.9406C38.0176 81.5931 38.0917 81.1992 38.0917 80.7564C38.0917 80.3136 38.0188 79.919 37.8713 79.5733C37.7237 79.2277 37.5123 78.9571 37.2363 78.761C36.9597 78.5667 36.6354 78.4684 36.2651 78.4684ZM44.5702 83.5683V80.2462C44.5702 79.925 44.5726 79.6377 44.5762 79.3844C44.5809 79.1299 44.5833 78.9493 44.5857 78.8438H44.5702L43.096 83.5677H42.3948L40.9194 78.8516H40.9044C40.9146 78.8516 40.9194 79.3165 40.9194 80.2456V83.5677H40.2343V77.9427H41.2491L42.746 82.6969H42.7615L44.2494 77.9427H45.2559V83.5677H44.5714L44.5702 83.5683ZM51.2267 83.5683V80.2462C51.2267 79.925 51.2291 79.6377 51.2327 79.3844C51.2381 79.1299 51.2405 78.9493 51.2428 78.8438H51.2273L49.7525 83.5677H49.0519L47.5765 78.8516H47.5616C47.5717 78.8516 47.5765 79.3165 47.5765 80.2456V83.5677H46.8914V77.9427H47.9062L49.4025 82.6969H49.4186L50.9066 77.9427H51.913V83.5677H51.2285L51.2267 83.5683ZM57.4155 83.5683H53.5485V77.9433H57.3654V78.6174H54.2551V80.3392H57.1229V81.0127H54.2551V82.8942H57.4149V83.5677L57.4155 83.5683ZM59.7003 83.576H58.9931V77.951H61.4289C61.7443 77.951 62.0185 78.019 62.255 78.1537C62.4898 78.2896 62.6708 78.4773 62.7962 78.7187C62.9216 78.9601 62.9837 79.2318 62.9837 79.5346C62.9837 79.9822 62.8559 80.3726 62.5991 80.7045C62.3434 81.0359 61.9534 81.2022 61.4289 81.2022H59.7003V83.5754V83.576ZM59.7003 80.552H61.1882C61.899 80.552 62.2544 80.2152 62.2544 79.5429C62.2544 78.9148 61.9086 78.6013 61.2187 78.6013H59.7003V80.552ZM67.6112 77.9433H68.3184V83.5683H67.6112V80.9435C67.4433 81.0168 67.1769 81.1098 66.8096 81.2218C66.4434 81.3327 66.0671 81.3887 65.6836 81.3887C65.2339 81.3887 64.8689 81.2737 64.5876 81.0431C64.3062 80.8118 64.1664 80.4214 64.1664 79.8707V77.9433H64.8737V79.8004C64.8737 80.3737 65.2118 80.661 65.8885 80.661C66.2135 80.661 66.5432 80.6127 66.8765 80.5144C67.2098 80.4167 67.4547 80.3356 67.6112 80.27V77.9433ZM73.8795 83.5683H70.013V77.9433H73.8299V78.6174H70.7196V80.3392H73.5874V81.0127H70.7196V82.8942H73.8795V83.5677V83.5683ZM79.1353 79.6359C79.0475 79.1955 78.8629 78.8903 78.5827 78.7217C78.3026 78.5536 77.9974 78.4684 77.6653 78.4684C77.3427 78.4684 77.0506 78.5536 76.7914 78.7229C76.531 78.8927 76.3267 79.1442 76.1755 79.481C76.0262 79.8171 75.9504 80.223 75.9504 80.701C75.9504 81.4161 76.0865 81.9871 76.3589 82.4085C76.6313 82.8316 77.0757 83.0432 77.6886 83.0432C77.8749 83.0432 78.0673 83.0015 78.265 82.9162C78.4639 82.8328 78.6484 82.6761 78.8175 82.4454C78.9877 82.216 79.1096 81.9001 79.1836 81.5002H79.87C79.7834 82.1349 79.5922 82.6177 79.2965 82.9466C79.0003 83.2768 78.7016 83.4872 78.3976 83.5802C78.0935 83.672 77.8194 83.7173 77.5775 83.7173C77.2674 83.7173 76.973 83.6612 76.6928 83.5474C76.4145 83.4354 76.1636 83.2578 75.9408 83.017C75.7168 82.7756 75.5418 82.4633 75.4128 82.0795C75.2843 81.6957 75.2198 81.2439 75.2198 80.7242C75.2198 80.2903 75.276 79.894 75.3877 79.5346C75.4982 79.174 75.6613 78.8647 75.8727 78.606C76.0848 78.3462 76.3422 78.1465 76.6456 78.0053C76.9485 77.864 77.2884 77.7937 77.6653 77.7937C78.0923 77.7937 78.4639 77.8783 78.7775 78.0482C79.0911 78.2192 79.3348 78.4439 79.5074 78.7246C79.68 79.0054 79.7846 79.3081 79.8198 79.6347H79.1335L79.1353 79.6359ZM82.0102 83.5683H81.3029V77.9433H82.0102V80.6688L84.5494 77.9433H85.5278L83.3446 80.2152L85.5869 83.5683H84.667L82.8333 80.7468L82.0102 81.5943V83.5683ZM88.6225 83.7173C88.159 83.7173 87.7623 83.6243 87.4314 83.4401C87.1017 83.256 86.8377 83.0158 86.6406 82.7196C86.4447 82.4228 86.3037 82.1057 86.2171 81.7654C86.1317 81.4257 86.0893 81.0901 86.0893 80.757C86.0893 80.4226 86.1323 80.0859 86.2171 79.7462C86.3037 79.4053 86.4447 79.0882 86.6406 78.792C86.8365 78.4958 87.1005 78.255 87.4314 78.0708C87.7635 77.8867 88.1602 77.7943 88.6225 77.7943C89.0866 77.7943 89.4826 77.8861 89.8141 78.0685C90.1445 78.2514 90.4091 78.491 90.6062 78.789C90.8015 79.087 90.9431 79.4053 91.0291 79.7462C91.1145 80.0859 91.1569 80.4226 91.1569 80.757C91.1569 81.0895 91.1139 81.4257 91.0291 81.7654C90.9425 82.1057 90.8015 82.4228 90.6044 82.7208C90.4073 83.017 90.1433 83.2572 89.8135 83.4413C89.4838 83.6255 89.0872 83.7173 88.6219 83.7173H88.6225ZM88.6243 78.4684C88.2533 78.4684 87.9278 78.5661 87.6518 78.761C87.3753 78.9571 87.1638 79.2271 87.0163 79.5733C86.8694 79.919 86.7965 80.3136 86.7965 80.7564C86.7965 81.1986 86.8706 81.5931 87.0181 81.9406C87.165 82.2869 87.3783 82.5587 87.6542 82.7529C87.932 82.9472 88.2539 83.0438 88.6243 83.0438C88.9928 83.0438 89.3154 82.9472 89.5925 82.7529C89.8691 82.5587 90.0817 82.2869 90.2287 81.9406C90.3762 81.5931 90.4503 81.1992 90.4503 80.7564C90.4503 80.3136 90.3774 79.919 90.2299 79.5733C90.0823 79.2277 89.8709 78.9571 89.5943 78.761C89.3184 78.5667 88.9934 78.4684 88.6237 78.4684H88.6243ZM96.4623 83.5683H92.5953V77.9433H96.4121V78.6174H93.3019V80.3392H96.1696V81.0127H93.3019V82.8942H96.4617V83.5677L96.4623 83.5683Z" fill="#2B2A29"/>
<path fill-rule="evenodd" clip-rule="evenodd" d="M139.861 77.457V83.017H139.137V78.1234H136.332V83.017H135.608V77.457H139.861ZM142.37 83.0248H141.647V77.4648H144.142C144.465 77.4648 144.746 77.5321 144.988 77.665C145.229 77.7991 145.414 77.9851 145.543 78.2241C145.671 78.4631 145.735 78.7313 145.735 79.031C145.735 79.4739 145.604 79.8595 145.341 80.1873C145.079 80.5151 144.679 80.679 144.142 80.679H142.372V83.0248H142.37ZM142.37 80.0359H143.895C144.622 80.0359 144.987 79.7027 144.987 79.0382C144.987 78.4172 144.633 78.1079 143.926 78.1079H142.37V80.0365V80.0359ZM151.233 83.017H147.273V77.457H151.183V78.1234H147.997V79.8255H150.935V80.4912H147.997V82.3513H151.233V83.017ZM153.114 83.017V84.0547H152.457V82.3513H152.815C152.942 82.1362 153.033 81.9109 153.086 81.6761C153.14 81.4412 153.166 81.1665 153.166 80.8488V77.457H156.745V82.3513H157.159V84.0547H156.502V83.017H153.113H153.114ZM153.502 82.3513H156.022V78.1234H153.855V80.8488C153.855 81.418 153.737 81.9186 153.502 82.3513H153.502ZM162.778 77.457V83.017H162.055V78.1234H159.25V83.017H158.526V77.457H162.778ZM165.288 83.0248H164.564V77.4648H167.059C167.382 77.4648 167.664 77.5321 167.906 77.665C168.147 77.7991 168.332 77.9851 168.46 78.2241C168.589 78.4631 168.652 78.7313 168.652 79.031C168.652 79.4739 168.521 79.8595 168.258 80.1873C167.996 80.5151 167.596 80.679 167.059 80.679H165.288V83.0248ZM165.288 80.0359H166.813C167.54 80.0359 167.905 79.7027 167.905 79.0382C167.905 78.4172 167.551 78.1079 166.844 78.1079H165.289V80.0365L165.288 80.0359ZM170.89 81.9484H170.906L173.592 77.457H174.451V83.017H173.749V78.5256H173.734L171.003 83.017H170.188V77.457H170.89V81.9484ZM179.69 80.6307H178.591L176.967 83.017H176.017L177.692 80.6229C177.457 80.6229 177.221 80.5675 176.989 80.4561C176.756 80.3452 176.56 80.167 176.403 79.9209C176.246 79.6741 176.167 79.3618 176.167 78.9828C176.167 78.6121 176.249 78.3129 176.412 78.087C176.575 77.8599 176.789 77.699 177.053 77.6019C177.317 77.5053 177.609 77.457 177.931 77.457H180.414V83.017H179.69V80.6307H179.69ZM179.69 78.0995H177.88C177.236 78.0995 176.914 78.4094 176.914 79.0305C176.914 79.2843 176.965 79.4834 177.068 79.6253C177.17 79.7671 177.3 79.8642 177.459 79.9131C177.618 79.9632 177.8 79.9876 178.006 79.9876H179.69V78.0995ZM181.801 77.457H186.16V78.1234H184.343V83.017H183.619V78.1234H181.801V77.457ZM188.175 81.9484H188.191L190.877 77.457H191.736V83.017H191.034V78.5256H191.019L188.289 83.017H187.473V77.457H188.175V81.9484ZM197.475 83.017H193.514V77.457H197.424V78.1234H194.238V79.8255H197.176V80.4912H194.238V82.3513H197.475V83.017Z" fill="#2B2A29"/>
<path d="M4.75289 48.7773C4.27982 48.5675 3.81211 48.412 3.35457 48.3172C2.89881 48.2195 2.46994 48.1903 2.06854 48.2254C1.66774 48.2606 1.31831 48.3714 1.01547 48.5598C0.714416 48.7439 0.483254 49.0163 0.320783 49.3709C0.140392 49.7851 0.0352641 50.2029 0.00957942 50.6332C-0.015508 51.0629 0.0113714 51.4932 0.09858 51.9259C0.182205 52.3568 0.302863 52.7901 0.458166 53.2198C0.302266 53.6776 0.188775 54.1967 0.121278 54.7742C0.053781 55.3517 0.0298883 55.9483 0.053781 56.5669C0.0794658 57.1814 0.150547 57.7774 0.279568 58.3519C0.355427 58.694 0.488629 59.1094 0.681564 59.594C0.868524 60.0803 1.11163 60.6018 1.41686 61.1549C1.72209 61.7085 2.08526 62.2586 2.50876 62.8022C2.92987 63.3505 3.40952 63.8529 3.95547 64.3142C4.49963 64.7785 5.10889 65.1635 5.78148 65.4669C6.45406 65.7607 7.12544 65.9306 7.79265 65.9711C8.45926 66.011 9.10018 65.93 9.70885 65.7166C10.3181 65.5032 10.8688 65.1635 11.364 64.7046C11.8568 64.2403 12.2678 63.6491 12.5903 62.9381C12.9684 62.0804 13.1446 61.1954 13.1172 60.2859C13.0957 59.3746 12.9045 58.4497 12.5491 57.508C12.1919 56.5711 11.6979 55.6306 11.0761 54.6895C10.4806 53.7753 9.83787 52.9338 9.14797 52.1673C8.45747 51.4003 7.74486 50.7274 7.0024 50.1511C6.26112 49.5747 5.51089 49.1134 4.75229 48.7761L4.75289 48.7773ZM3.11624 49.2464C3.33844 49.3453 3.66099 49.5598 4.07673 49.8865C4.49604 50.2154 4.98465 50.6457 5.5533 51.1833C6.11836 51.7191 6.73599 52.3497 7.40678 53.0744C8.08115 53.8015 8.78121 54.6103 9.51353 55.5055C10.0123 56.1164 10.4716 56.738 10.8969 57.3733C11.3204 58.0027 11.6698 58.6374 11.9458 59.2769C12.2188 59.911 12.3801 60.5422 12.4255 61.1656C12.4768 61.7866 12.3723 62.3945 12.1143 62.9828C11.9106 63.4286 11.6525 63.7933 11.3306 64.0776C11.0128 64.3631 10.6544 64.5699 10.259 64.698C9.86176 64.8208 9.44961 64.8703 9.02074 64.8411C8.59127 64.8113 8.16836 64.7046 7.74785 64.5175C7.70604 64.5038 7.5585 64.4185 7.30643 64.2594C7.05257 64.1038 6.70852 63.8607 6.28382 63.5347C5.86032 63.2045 5.37052 62.7778 4.81979 62.2527C4.26727 61.7318 3.67652 61.0947 3.04396 60.3479C2.857 60.1274 2.64734 59.83 2.4108 59.4634C2.17426 59.0975 1.94012 58.6851 1.70895 58.2214C1.47421 57.7565 1.26574 57.2744 1.08475 56.7624C0.898988 56.2528 0.76698 55.748 0.685745 55.2373C0.602717 54.7307 0.594952 54.2479 0.66006 53.7926C0.77594 54.0763 0.925867 54.4327 1.10865 54.8558C1.29083 55.279 1.50825 55.7409 1.75853 56.2457C2.00881 56.7505 2.28895 57.2642 2.60672 57.7899C2.9239 58.315 3.27751 58.8233 3.66338 59.3127C4.04925 59.802 4.47155 60.2412 4.9291 60.6346C5.38247 61.0255 5.87764 61.3456 6.40329 61.584C6.55799 61.6531 6.75929 61.7139 7.01016 61.7586C7.26342 61.8093 7.54476 61.8295 7.8476 61.8218C8.15462 61.8158 8.46344 61.7634 8.77823 61.6662C9.09301 61.5685 9.38928 61.4058 9.66465 61.1823C9.70765 61.1394 9.72677 61.0863 9.71542 61.0148C9.70467 60.9433 9.68257 60.8861 9.64135 60.8396C9.60611 60.7907 9.5631 60.7812 9.5195 60.8044C9.22084 61.0136 8.91143 61.1328 8.58589 61.159C8.26035 61.1853 7.93899 61.1275 7.61345 60.9832C7.30763 60.8473 6.97492 60.6334 6.61235 60.3485C6.25097 60.06 5.87227 59.7156 5.48043 59.3139C5.08918 58.9122 4.69734 58.4675 4.30251 57.9884C3.9053 57.5038 3.52301 56.9966 3.15028 56.4656C2.72141 55.8714 2.32061 55.2659 1.94549 54.6347C1.56918 54.0071 1.25559 53.3885 0.99874 52.7806C0.743685 52.1691 0.575838 51.5964 0.503562 51.0653C0.428898 50.5289 0.476086 50.0611 0.650503 49.6594C0.774745 49.3924 0.960512 49.1993 1.21019 49.0872C1.46166 48.971 1.75017 48.9335 2.07989 48.9609C2.41021 48.9889 2.75665 49.086 3.11803 49.2464H3.11624ZM14.2383 44.3872C14.003 44.2156 13.7533 44.1149 13.4827 44.0904C13.2151 44.063 12.9571 44.1023 12.7056 44.212C12.4541 44.3211 12.2367 44.4945 12.0527 44.7305C11.8001 45.0726 11.6268 45.5178 11.5301 46.0638C11.4303 46.6133 11.4088 47.211 11.4668 47.8619C11.5241 48.5133 11.6615 49.1599 11.8741 49.8084C12.082 50.4264 12.355 51.001 12.6972 51.535C13.0359 52.0666 13.4469 52.5166 13.9265 52.8825C14.276 53.14 14.6176 53.3152 14.9438 53.4088C15.2705 53.5023 15.5787 53.5333 15.8702 53.5077C16.1581 53.4803 16.4221 53.4123 16.6551 53.311C16.8922 53.2061 17.0959 53.0881 17.2637 52.9594C17.431 52.8247 17.5588 52.6983 17.6454 52.5839C17.8957 52.2454 18.0546 51.8765 18.1155 51.4718C18.18 51.0695 18.1567 50.6612 18.042 50.244C17.9775 50.0051 17.8879 49.7422 17.775 49.4514C17.6628 49.1605 17.5433 48.8643 17.4083 48.5675C17.2697 48.2677 17.1377 47.9894 16.9991 47.7331C16.9723 47.6968 16.9298 47.6813 16.8731 47.698C16.8193 47.7117 16.7733 47.7367 16.7357 47.7796C16.6945 47.8195 16.6849 47.8613 16.7064 47.9048C16.8313 48.1503 16.9502 48.403 17.0654 48.6682C17.1867 48.9329 17.2948 49.1933 17.3928 49.446C17.4877 49.7017 17.5606 49.9359 17.6197 50.1541C17.7267 50.5385 17.7625 50.902 17.732 51.2376C17.6992 51.5767 17.5708 51.8979 17.3492 52.1983C17.1652 52.4349 16.9764 52.5917 16.7907 52.6638C16.5995 52.7365 16.4185 52.7526 16.2447 52.7097C16.0745 52.6679 15.9216 52.597 15.789 52.4915C15.5309 52.2925 15.2747 52.0344 15.0154 51.7144C14.7622 51.3937 14.5197 51.0594 14.2975 50.7125C14.0711 50.3632 13.8746 50.0474 13.7139 49.7631C13.5496 49.4764 13.4301 49.2672 13.3615 49.1343C12.9714 48.412 12.6847 47.7677 12.5091 47.2009C12.3293 46.6311 12.2427 46.1484 12.2427 45.7521C12.2463 45.3581 12.3251 45.0595 12.4798 44.8551C12.6369 44.6536 12.8209 44.5255 13.0293 44.4653C13.2414 44.4075 13.426 44.4373 13.5908 44.5505C13.779 44.6971 13.8889 44.8831 13.9188 45.0959C13.9498 45.3146 13.8955 45.5232 13.7545 45.7163C13.6255 45.9016 13.586 46.1055 13.6386 46.3236C13.6888 46.5459 13.8214 46.7378 14.034 46.9029C14.1338 46.9726 14.2449 47.0126 14.3751 47.0126C14.4999 47.0138 14.6206 46.9905 14.7395 46.9339C14.8559 46.8803 14.9545 46.8076 15.0304 46.7074C15.2167 46.4458 15.2944 46.1782 15.2639 45.9005C15.2311 45.6203 15.1206 45.348 14.9324 45.0863C14.7472 44.8277 14.5119 44.5911 14.2377 44.3854L14.2383 44.3872ZM21.0036 41.2672C21.0985 41.4973 21.2216 41.7488 21.3781 42.0217C21.5346 42.2941 21.7132 42.5641 21.9133 42.8371C22.1098 43.107 22.3159 43.349 22.5339 43.5666C22.786 43.8181 23.0655 44.0171 23.3731 44.1649C23.6831 44.3151 23.9848 44.3884 24.2828 44.3854C24.5809 44.3825 24.8389 44.2722 25.0606 44.0636C25.272 43.8461 25.4076 43.5946 25.4691 43.3061C25.5306 43.0182 25.5396 42.7143 25.4996 42.3984C25.4566 42.0861 25.3921 41.7822 25.2935 41.4877C25.1955 41.1933 25.0904 40.9299 24.9835 40.6998C24.873 40.4728 24.7834 40.2981 24.7099 40.1813C24.6639 40.117 24.609 40.0866 24.5534 40.0925C24.4919 40.0985 24.4489 40.1289 24.4184 40.1903C24.388 40.2516 24.3939 40.3255 24.4334 40.4203C24.4949 40.5431 24.5719 40.7052 24.6639 40.9198C24.7559 41.1283 24.8455 41.3644 24.9315 41.6284C25.0146 41.8888 25.0761 42.1529 25.1161 42.4258C25.1561 42.6982 25.1531 42.9527 25.1101 43.1923C25.0671 43.4313 24.9656 43.6369 24.8031 43.8055C24.6896 43.9128 24.5445 43.9402 24.376 43.8943C24.207 43.8479 24.0409 43.7442 23.8814 43.585C23.8474 43.5511 23.8014 43.4992 23.7369 43.4223C23.6724 43.3454 23.6049 43.2596 23.5344 43.1583C23.4693 43.057 23.4114 42.9557 23.3654 42.849L20.4522 35.9319L19.309 37.0726L20.8393 40.8441L19.401 42.2792C19.2749 42.0426 19.1214 41.8102 18.9428 41.5771C18.7642 41.3441 18.5498 41.0991 18.2947 40.8447C18.0426 40.5931 17.7625 40.3941 17.4561 40.2469C17.1455 40.0967 16.8444 40.0228 16.5464 40.0258C16.2483 40.0287 15.9903 40.1396 15.7692 40.3476C15.6092 40.5133 15.5017 40.7249 15.4437 40.9853C15.3888 41.2487 15.3702 41.5306 15.3852 41.8346C15.4067 42.138 15.4527 42.4413 15.5202 42.7423C15.5877 43.0427 15.6677 43.3127 15.7603 43.5576C15.8523 43.8032 15.9413 43.9963 16.0273 44.1375C16.0763 44.2049 16.1348 44.2323 16.2089 44.2323C16.2794 44.2293 16.3379 44.2013 16.3809 44.1465C16.4239 44.091 16.4209 44.0207 16.3779 43.9349C16.3134 43.8151 16.2429 43.6464 16.1665 43.4229C16.0954 43.1988 16.0249 42.9509 15.9604 42.6779C15.8959 42.399 15.8499 42.126 15.8224 41.8537C15.7914 41.5771 15.7943 41.3292 15.8188 41.1087C15.8493 40.8882 15.9204 40.7195 16.0279 40.6063C16.1414 40.499 16.2859 40.4716 16.455 40.5175C16.624 40.5634 16.7901 40.6676 16.9496 40.8268C16.983 40.8607 17.0296 40.9126 17.0935 40.9895C17.1616 41.0628 17.2261 41.1522 17.2966 41.2535C17.3641 41.3512 17.4196 41.4555 17.4656 41.5628L20.3423 48.4066L21.4856 47.2659L19.5867 42.6851L21.0065 41.2684L21.0036 41.2672ZM29.6038 40.1152C30.0673 39.7296 30.4078 39.2867 30.621 38.7855C30.8348 38.2777 30.9525 37.7473 30.9752 37.1829C30.9979 36.6179 30.9513 36.0576 30.8384 35.4909C30.7249 34.9306 30.5768 34.3966 30.3886 33.896C30.2005 33.3954 30.0028 32.9525 29.7991 32.5705C29.5954 32.1885 29.4126 31.9006 29.2478 31.6986C28.9664 31.3517 28.6481 31.0841 28.2903 30.9047C27.9325 30.7253 27.5496 30.6663 27.1356 30.7217C26.7253 30.7742 26.2994 30.9732 25.858 31.3243C25.3777 31.7182 25.0128 32.1634 24.7565 32.6611C24.5033 33.1617 24.3336 33.6838 24.2601 34.2339C24.1837 34.7804 24.1693 35.3282 24.2261 35.8735C24.2828 36.4188 24.3832 36.9349 24.5236 37.4243C24.6663 37.9177 24.83 38.3534 25.0158 38.7337C25.1979 39.1169 25.3795 39.4161 25.5575 39.6348C25.8012 39.9346 26.0772 40.1861 26.3836 40.3845C26.693 40.5866 27.0221 40.7165 27.3734 40.7845C27.7252 40.8458 28.0919 40.8292 28.4671 40.7267C28.8428 40.6241 29.2227 40.4173 29.6038 40.1152ZM29.2119 39.9632C28.9999 40.1295 28.7872 40.2117 28.574 40.2111C28.3613 40.2099 28.16 40.1491 27.9689 40.0305C27.7742 39.9143 27.6045 39.7611 27.4546 39.5758C27.3614 39.4614 27.2444 39.2546 27.0992 38.9589C26.9541 38.6627 26.8005 38.3016 26.6381 37.8808C26.472 37.4624 26.3131 37.0053 26.1572 36.5166C26.0043 36.032 25.8711 35.5373 25.763 35.0385C25.6513 34.5426 25.5808 34.07 25.5444 33.6194C25.5079 33.1748 25.5277 32.7791 25.6011 32.4352C25.671 32.0937 25.8132 31.8344 26.0264 31.6568C26.2892 31.45 26.5222 31.3511 26.7223 31.3565C26.9224 31.3624 27.0896 31.4167 27.2294 31.5269C27.3698 31.6372 27.4785 31.7445 27.5627 31.8547C27.6201 31.9256 27.7186 32.1021 27.853 32.3845C27.9898 32.6641 28.1505 33.0199 28.3279 33.4454C28.5059 33.871 28.6821 34.3364 28.8607 34.846C29.0399 35.3484 29.1982 35.8675 29.3374 36.3908C29.4741 36.9105 29.5727 37.4111 29.6342 37.8862C29.6928 38.3582 29.6916 38.7772 29.6318 39.1437C29.5721 39.5043 29.4317 39.7796 29.2119 39.9626V39.9632ZM35.786 35.5356C36.1331 35.2966 36.4132 34.967 36.6253 34.5516C36.8385 34.1308 36.9932 33.6612 37.0828 33.1349C37.1736 32.6027 37.2154 32.052 37.2052 31.478C37.1927 30.9005 37.1401 30.3343 37.0434 29.7723C36.9448 29.2163 36.8146 28.6971 36.6444 28.221C36.4777 27.7418 36.2812 27.3347 36.0578 27.0045C35.924 26.8067 35.7687 26.6076 35.5871 26.4163C35.4085 26.2226 35.215 26.0599 35.0071 25.9228C34.7992 25.7857 34.5902 25.7017 34.3763 25.6725C34.1631 25.6439 33.9522 25.6963 33.7515 25.8263C34.0048 25.216 34.2521 24.5896 34.4874 23.9447C34.7252 23.304 34.9289 22.6592 35.1051 22.0125C35.2747 21.3641 35.3888 20.7335 35.4467 20.1137C35.5047 19.4944 35.4826 18.9026 35.3757 18.3418C35.2699 17.7744 35.0615 17.2565 34.7437 16.7791C34.5968 16.5699 34.402 16.4132 34.1589 16.3101C33.9182 16.2099 33.6566 16.1718 33.3776 16.1926C33.1005 16.2171 32.8382 16.3095 32.5868 16.4734C32.1716 16.7582 31.833 17.0646 31.5767 17.3834C31.3228 17.7059 31.1233 18.0235 30.9824 18.343C30.8384 18.6648 30.7255 18.9706 30.6473 19.259C30.5696 19.5469 30.4974 19.8044 30.4287 20.0284C30.3098 20.4117 30.2232 20.8414 30.1754 21.3128C30.1276 21.7848 30.1037 22.2765 30.1091 22.7801C30.1127 23.2897 30.136 23.782 30.1784 24.2707C30.222 24.7541 30.2728 25.2011 30.3361 25.6135C30.492 26.5963 30.6562 27.5528 30.8319 28.4862C31.0033 29.4219 31.1885 30.3016 31.3886 31.124C31.5887 31.9465 31.8025 32.6819 32.0301 33.3286C32.2636 33.977 32.5169 34.5075 32.7881 34.9157C33.0736 35.3305 33.3442 35.6297 33.6028 35.8109C33.8621 35.9921 34.1153 36.0886 34.3548 36.094C34.6009 36.1012 34.8393 36.0505 35.0764 35.9438C35.3135 35.8365 35.5465 35.7006 35.7854 35.535L35.786 35.5356ZM31.5916 23.6086C31.4644 22.863 31.3897 22.1389 31.3724 21.4237C31.3515 20.7103 31.3868 20.0487 31.4698 19.4438C31.551 18.8347 31.6806 18.3138 31.8557 17.8823C32.0301 17.4508 32.2493 17.1462 32.5103 16.9656C32.6471 16.8739 32.7929 16.8333 32.9326 16.8387C33.079 16.8453 33.2175 16.8876 33.343 16.965C33.4714 17.0467 33.5795 17.1516 33.6691 17.2845C33.8597 17.5593 34.0436 17.9168 34.2067 18.3507C34.3751 18.7864 34.4964 19.3067 34.5609 19.9069C34.632 20.5076 34.6117 21.1906 34.5084 21.9612C34.405 22.7313 34.1762 23.5865 33.8232 24.53C33.4744 25.471 32.9625 26.5057 32.2935 27.6256L31.5922 23.6098L31.5916 23.6086ZM35.4736 35.3061C35.344 35.3937 35.1947 35.436 35.037 35.4277C34.8775 35.4247 34.721 35.3788 34.5687 35.2936C34.4199 35.2054 34.2867 35.0856 34.1774 34.9241C34.0753 34.7733 33.9558 34.5033 33.825 34.1153C33.6906 33.7303 33.5503 33.2279 33.4057 32.6194L32.3909 28.187L33.2498 26.573C33.4398 26.4503 33.6357 26.4073 33.8346 26.4461C34.0371 26.4824 34.1983 26.5885 34.3208 26.7626C34.3955 26.8645 34.4988 27.0558 34.6326 27.3478C34.7664 27.6393 34.9223 28.0791 35.1027 28.6632C35.2807 29.2443 35.47 30.0214 35.6743 30.9983C35.7311 31.2683 35.7896 31.5639 35.8541 31.8923C35.9162 32.2165 35.9694 32.5514 36.01 32.8905C36.053 33.2332 36.0703 33.5616 36.059 33.8781C36.0512 34.1916 36.0022 34.4759 35.9132 34.7244C35.8207 34.9753 35.6731 35.1684 35.4736 35.3079V35.3061ZM42.7119 22.2223C42.6008 22.0405 42.4718 21.8832 42.3285 21.7431C42.1869 21.6072 42.0214 21.5178 41.8285 21.488C41.6332 21.4541 41.4008 21.5083 41.1344 21.6448C40.7468 21.8599 40.3979 22.2122 40.0933 22.7027C39.7904 23.1973 39.5408 23.7719 39.3454 24.4298C39.1483 25.0944 39.0181 25.7822 38.9548 26.5039C38.8873 27.2268 38.9046 27.9247 38.9936 28.5994C39.082 29.2741 39.2624 29.8713 39.5342 30.3904C39.7158 30.7313 39.9332 31.0281 40.1823 31.2742C40.4314 31.5204 40.7002 31.6825 40.9839 31.7623C41.27 31.8464 41.5549 31.8178 41.841 31.6711C42.0615 31.549 42.2526 31.3541 42.4091 31.0942C42.5698 30.832 42.7042 30.5304 42.8105 30.1842C42.9204 29.8361 43.0064 29.4713 43.0745 29.0911C43.1408 28.7079 43.1958 28.3396 43.237 27.9742C43.277 27.6142 43.3057 27.29 43.3272 26.9986C43.3493 26.7071 43.3708 26.4795 43.3857 26.3144C43.492 26.8377 43.6115 27.265 43.7381 27.5856C43.8666 27.9098 43.9556 28.1137 44.0039 28.1959C44.1694 28.5058 44.3611 28.7824 44.5804 29.0196C44.7984 29.2526 45.0355 29.4117 45.2888 29.4988C45.5414 29.5858 45.8055 29.5631 46.076 29.4249C46.3424 29.2782 46.5455 29.0774 46.6889 28.8199C46.8322 28.5619 46.9302 28.2746 46.9846 27.9611C47.0353 27.6494 47.0622 27.3407 47.0544 27.0302C47.0467 26.7202 47.024 26.4371 46.9887 26.1856C46.9493 25.9365 46.9153 25.7434 46.8788 25.6105C46.8537 25.5354 46.8101 25.4901 46.7552 25.48C46.6949 25.4681 46.6447 25.4848 46.5969 25.5342C46.5533 25.5819 46.5336 25.6558 46.5443 25.7583C46.5676 25.8936 46.5951 26.0754 46.6184 26.303C46.6459 26.5295 46.662 26.781 46.6668 27.0588C46.6698 27.3317 46.6513 27.6023 46.6094 27.8747C46.5676 28.147 46.49 28.3896 46.3795 28.606C46.2678 28.8223 46.1107 28.9892 45.9058 29.1024C45.7654 29.1722 45.6191 29.1561 45.471 29.0631C45.3228 28.9695 45.1944 28.8217 45.0887 28.6227L44.0517 20.3038L42.6241 21.0607L42.7119 22.2223ZM42.4658 22.6472C42.5292 22.7658 42.5919 22.9583 42.6576 23.2283C42.7209 23.5043 42.7776 23.8321 42.8284 24.223C42.8786 24.6134 42.915 25.0413 42.9347 25.5122C42.9568 25.9872 42.9533 26.4801 42.9252 27.0004C42.9162 27.113 42.8965 27.3156 42.8607 27.6095C42.8254 27.9033 42.7753 28.2442 42.7131 28.6256C42.6468 29.0094 42.5692 29.3897 42.4754 29.7687C42.3816 30.1472 42.2735 30.4798 42.1487 30.7623C42.0196 31.0465 41.8763 31.2307 41.7156 31.3261C41.6445 31.3588 41.5645 31.3571 41.4821 31.3225C41.3937 31.2855 41.3184 31.2373 41.2449 31.1729C41.1768 31.1103 41.1272 31.0537 41.1004 31.0042C41.0311 30.8642 40.9684 30.627 40.9152 30.2962C40.862 29.966 40.8202 29.5911 40.7838 29.1632C40.7497 28.7395 40.7235 28.3109 40.7067 27.883C40.6924 27.4587 40.6864 27.079 40.69 26.7429C40.7121 25.9157 40.7372 25.2249 40.7641 24.6659C40.7927 24.1098 40.828 23.6592 40.862 23.3171C40.9003 22.9732 40.9439 22.7039 40.994 22.5209C41.0418 22.3331 41.1004 22.1943 41.1643 22.1114C41.2324 22.0262 41.31 21.9601 41.3966 21.9195C41.4791 21.8707 41.58 21.8564 41.6905 21.8713C41.8016 21.8862 41.9217 21.9547 42.0531 22.0715C42.1863 22.1925 42.3237 22.385 42.464 22.649L42.4658 22.6472ZM52.054 21.1239C52.051 21.3724 52.066 21.6519 52.1036 21.9642C52.1412 22.2765 52.1992 22.5942 52.2762 22.9232C52.3515 23.248 52.4464 23.5514 52.5617 23.8368C52.6949 24.167 52.8741 24.459 53.0999 24.7147C53.3263 24.974 53.5754 25.1593 53.8507 25.2726C54.1267 25.3858 54.4074 25.3846 54.6924 25.2791C54.9725 25.1617 55.1959 24.9823 55.3655 24.7416C55.5346 24.5002 55.6624 24.2242 55.749 23.9185C55.8321 23.6139 55.8912 23.3094 55.9163 23.0001C55.9414 22.6907 55.9479 22.4071 55.9396 22.1532C55.9264 21.9016 55.9127 21.7056 55.8906 21.5697C55.8733 21.4928 55.8344 21.4427 55.7813 21.4266C55.7227 21.4088 55.6708 21.4195 55.6182 21.4642C55.5662 21.5089 55.5429 21.5786 55.5424 21.6823C55.5513 21.8188 55.5579 21.9988 55.5591 22.2324C55.5621 22.4607 55.5513 22.7122 55.528 22.9887C55.5017 23.2611 55.4557 23.5281 55.3853 23.7945C55.3148 24.0609 55.2126 24.294 55.0794 24.4978C54.9462 24.701 54.7724 24.8506 54.5568 24.9424C54.4098 24.9966 54.2665 24.9662 54.1285 24.8578C53.9911 24.7493 53.8794 24.589 53.7946 24.3798C53.7767 24.3357 53.7546 24.2695 53.7253 24.1736C53.696 24.0782 53.6674 23.9727 53.6417 23.8517C53.6214 23.7331 53.6076 23.6175 53.6076 23.5007L53.6351 15.9978L52.1358 16.6021L52.0677 20.6703L50.182 21.4302C50.1581 21.1638 50.1085 20.8897 50.0357 20.6054C49.9628 20.3211 49.8612 20.0118 49.7257 19.678C49.5925 19.3484 49.4127 19.0558 49.1875 18.8007C48.9605 18.5414 48.712 18.3561 48.4366 18.2429C48.1607 18.1296 47.8799 18.1308 47.595 18.2363C47.383 18.3263 47.2008 18.4795 47.0455 18.6964C46.8914 18.9175 46.7641 19.1696 46.659 19.4551C46.5599 19.743 46.484 20.0404 46.4285 20.3431C46.3729 20.6465 46.3406 20.926 46.3293 21.1877C46.318 21.4493 46.3245 21.6621 46.3484 21.8254C46.3669 21.907 46.4099 21.9547 46.478 21.9839C46.5443 22.0089 46.6088 22.0059 46.6698 21.972C46.7313 21.938 46.7558 21.8718 46.7498 21.7765C46.7373 21.6412 46.7385 21.4582 46.7552 21.2222C46.7779 20.9886 46.8095 20.7329 46.8573 20.4558C46.9069 20.1739 46.9714 19.9045 47.0527 19.6428C47.1327 19.377 47.2324 19.1494 47.3418 18.9557C47.4564 18.7643 47.5873 18.6368 47.7312 18.5742C47.8776 18.52 48.0215 18.5504 48.1589 18.6589C48.2963 18.7667 48.408 18.9276 48.4928 19.1368C48.5107 19.1809 48.5328 19.2471 48.5621 19.3425C48.5955 19.4366 48.62 19.5433 48.6457 19.6643C48.6696 19.7805 48.6797 19.8979 48.6797 20.0147L48.6475 27.4354L50.1468 26.8311L50.1922 21.8742L52.054 21.1239ZM60.1244 23.2009C60.696 23.0066 61.1727 22.7152 61.552 22.3236C61.9343 21.9261 62.2347 21.4725 62.4587 20.9534C62.6827 20.4343 62.841 19.8949 62.9384 19.3252C63.0333 18.7614 63.0871 18.2101 63.0913 17.6755C63.0955 17.1409 63.0698 16.6563 63.0172 16.2272C62.964 15.7975 62.8965 15.4637 62.8159 15.2164C62.6773 14.7921 62.4766 14.4279 62.2072 14.1329C61.9372 13.8373 61.601 13.646 61.1948 13.5494C60.7928 13.4523 60.3239 13.485 59.7857 13.6555C59.1962 13.851 58.695 14.1365 58.2769 14.509C57.8605 14.8862 57.5153 15.3124 57.2489 15.7999C56.9813 16.2832 56.771 16.7892 56.6283 17.3185C56.4855 17.8477 56.3935 18.3656 56.3487 18.8728C56.3045 19.3842 56.3009 19.8502 56.338 20.2716C56.3702 20.6942 56.4324 21.0392 56.5202 21.3068C56.6396 21.674 56.8075 22.0071 57.0225 22.3022C57.2387 22.6013 57.4992 22.8403 57.8032 23.0293C58.1096 23.2122 58.4579 23.3279 58.8449 23.3666C59.232 23.4053 59.6615 23.3481 60.1262 23.2021L60.1244 23.2009ZM59.8132 22.919C59.5551 22.9983 59.3276 22.9989 59.1287 22.922C58.9303 22.8451 58.7649 22.7164 58.6287 22.537C58.4883 22.3588 58.3856 22.1549 58.3115 21.9279C58.2655 21.7878 58.2303 21.553 58.201 21.2252C58.1723 20.8968 58.1586 20.5052 58.158 20.0535C58.1532 19.6041 58.1688 19.1202 58.1992 18.6088C58.2303 18.1016 58.284 17.592 58.3617 17.0878C58.4358 16.5848 58.5397 16.1181 58.6681 15.6849C58.7936 15.2569 58.9542 14.8946 59.146 14.5996C59.3341 14.3063 59.5599 14.115 59.8227 14.025C60.1423 13.9255 60.395 13.9165 60.5801 13.9934C60.7653 14.0703 60.9015 14.1812 60.9923 14.3337C61.0831 14.4869 61.1464 14.6258 61.1858 14.7593C61.2139 14.8457 61.2426 15.046 61.2665 15.3577C61.2939 15.6676 61.316 16.0574 61.3292 16.5181C61.3423 16.9788 61.3399 17.4764 61.3232 18.0158C61.3101 18.5492 61.2712 19.0904 61.2133 19.6291C61.1542 20.1637 61.0664 20.6662 60.9529 21.131C60.8382 21.5923 60.6865 21.9833 60.4989 22.3045C60.3137 22.6198 60.0838 22.8266 59.8126 22.919H59.8132ZM73.036 19.1196C73.4422 19.0063 73.8149 18.7858 74.1506 18.4622C74.4899 18.1338 74.7892 17.7398 75.0454 17.2714C75.3053 16.7982 75.5245 16.291 75.7019 15.7451C75.8781 15.195 76.0131 14.6425 76.1051 14.0799C76.1935 13.522 76.2395 12.9892 76.2341 12.4832C76.2329 11.976 76.1797 11.5278 76.0764 11.1422C76.0143 10.9122 75.9324 10.6738 75.8231 10.433C75.718 10.1916 75.5878 9.97525 75.4355 9.77798C75.2838 9.58071 75.1135 9.4335 74.9212 9.33695C74.7288 9.2404 74.5126 9.22192 74.2803 9.27913C74.7187 8.78446 75.1571 8.2725 75.5902 7.73909C76.0238 7.21045 76.427 6.6669 76.8045 6.11263C77.1767 5.55538 77.4896 4.99574 77.7465 4.42895C78.0039 3.86216 78.1754 3.29538 78.2578 2.73037C78.3432 2.15941 78.3145 1.60157 78.1706 1.04789C78.1001 0.80234 77.9669 0.590763 77.771 0.41435C77.5763 0.242108 77.3415 0.121122 77.0703 0.0496025C76.8003 -0.0171486 76.5226 -0.0147646 76.2311 0.0585424C75.7455 0.193237 75.3256 0.37263 74.9797 0.590763C74.6345 0.813068 74.3424 1.04849 74.1052 1.30476C73.8639 1.56223 73.6578 1.81493 73.4894 2.06227C73.3216 2.30901 73.1698 2.52893 73.0313 2.71845C72.7941 3.04208 72.5719 3.42053 72.3724 3.85084C72.1729 4.28115 71.9901 4.73887 71.8307 5.21685C71.6676 5.7002 71.5296 6.17282 71.4101 6.64902C71.2937 7.11986 71.1957 7.5591 71.121 7.96974C70.9478 8.94955 70.7913 9.90731 70.6521 10.8472C70.5088 11.7877 70.3971 12.6793 70.3176 13.5226C70.2382 14.3653 70.2006 15.1294 70.2047 15.8148C70.2143 16.5037 70.2806 17.0872 70.4043 17.5616C70.5387 18.0468 70.6969 18.4175 70.8827 18.6732C71.0685 18.9288 71.2769 19.1017 71.5015 19.1857C71.7315 19.2721 71.9734 19.3019 72.2326 19.2775C72.4919 19.2531 72.7559 19.2 73.036 19.1208V19.1196ZM72.9626 6.48036C73.0856 5.73358 73.2511 5.02494 73.4679 4.34313C73.6811 3.66191 73.9296 3.04804 74.2062 2.50271C74.4815 1.9538 74.7742 1.50263 75.0807 1.15159C75.3865 0.800552 75.6929 0.583611 75.9981 0.497789C76.1582 0.454877 76.3087 0.464413 76.439 0.514476C76.5746 0.568116 76.6922 0.653342 76.786 0.767177C76.8804 0.885779 76.9485 1.01988 76.9903 1.17484C77.0811 1.49667 77.1384 1.8942 77.1504 2.35788C77.1677 2.82454 77.1127 3.35557 76.9777 3.94381C76.8487 4.53504 76.6068 5.17454 76.2574 5.86946C75.9085 6.56439 75.4128 7.29806 74.7713 8.07583C74.1339 8.8524 73.3126 9.66415 72.3151 10.5051L72.962 6.48095L72.9626 6.48036ZM72.8156 18.8019C72.6645 18.8424 72.5092 18.8341 72.3635 18.7745C72.2141 18.7202 72.0803 18.6261 71.9644 18.495C71.8528 18.3632 71.7655 18.2071 71.7154 18.0182C71.6682 17.8423 71.6431 17.5485 71.6455 17.1391C71.6437 16.7308 71.6753 16.2105 71.7375 15.5883L72.2243 11.0677L73.5635 9.82089C73.7827 9.76666 73.9822 9.7899 74.1578 9.89062C74.3376 9.99075 74.4553 10.1433 74.5144 10.3477C74.5514 10.4681 74.5867 10.6833 74.6183 11.0021C74.65 11.3216 74.6536 11.7871 74.6333 12.3986C74.6118 13.0059 74.5377 13.8021 74.4117 14.7921C74.3776 15.0662 74.3358 15.3642 74.2898 15.6956C74.2426 16.0222 74.1841 16.3565 74.1112 16.6903C74.0401 17.0282 73.9493 17.3441 73.8353 17.6397C73.7253 17.9335 73.5862 18.1862 73.4207 18.3924C73.2511 18.5993 73.0492 18.734 72.815 18.8013L72.8156 18.8019Z" fill="#E31E24"/>
<path d="M86.1967 14.6727C86.146 14.8575 86.0856 15.0178 86.0128 15.1543C85.9441 15.2896 85.8873 15.37 85.8479 15.3945C85.7482 15.4564 85.6311 15.5166 85.5044 15.5739C85.3742 15.6364 85.2201 15.6895 85.0314 15.7449C84.8468 15.7991 84.6216 15.848 84.3474 15.8957C84.2967 15.9094 84.2584 15.9422 84.2328 15.9952C84.2071 16.0483 84.1993 16.1025 84.2089 16.1579C84.2202 16.2217 84.2381 16.2759 84.2716 16.3141C84.3009 16.3528 84.3564 16.3695 84.4287 16.357C84.7584 16.2992 85.0559 16.233 85.3259 16.1639C85.5917 16.0953 85.8587 16.031 86.1239 15.9618C86.3855 15.8939 86.6788 15.8289 86.9995 15.7723C87.3806 15.7056 87.751 15.6531 88.11 15.612C88.4689 15.5709 88.7801 15.5339 89.0448 15.5089C89.31 15.4845 89.4916 15.4654 89.5901 15.4481C89.7179 15.4213 89.8016 15.3712 89.8499 15.2925C89.8941 15.2186 89.9073 15.1459 89.8953 15.0774C89.8888 15.0392 89.8691 15.0029 89.838 14.9773C89.8069 14.9522 89.7657 14.9415 89.7144 14.9504C89.5602 14.9773 89.4014 15.0011 89.2317 15.0178C89.0669 15.0333 88.896 15.0416 88.7252 15.0452C88.5932 15.047 88.494 15.0112 88.423 14.9355C88.3519 14.8557 88.3041 14.7633 88.2838 14.6477C88.2635 14.5327 88.2611 14.4182 88.276 14.3056L90.5106 2.5264C90.5189 2.49838 90.5261 2.4662 90.5291 2.43104C90.5357 2.39468 90.5345 2.36369 90.5303 2.33806C90.5261 2.31243 90.5052 2.29396 90.473 2.28681C90.4407 2.27906 90.4019 2.28144 90.363 2.28859C90.32 2.29634 90.2711 2.3178 90.2107 2.35058C90.151 2.38753 90.1008 2.42746 90.0518 2.47574C89.9067 2.67778 89.7305 2.85359 89.5244 3.00915C89.3177 3.16411 89.046 3.29999 88.7132 3.41562C88.3805 3.53124 87.9576 3.63673 87.4404 3.72791L86.3359 3.92221C86.2595 3.93949 86.1997 3.97644 86.1663 4.03545C86.1281 4.09505 86.1125 4.15524 86.1239 4.22318C86.131 4.26133 86.1502 4.29768 86.1812 4.32331C86.2123 4.34894 86.2529 4.3549 86.3049 4.35013L86.947 4.23689C87.1943 4.18862 87.4171 4.22438 87.6052 4.34119C87.7934 4.458 87.923 4.69044 87.9875 5.03135C88.0012 5.10823 88.0048 5.20419 88.0018 5.31087C87.9953 5.42232 87.9833 5.53019 87.9636 5.64343L86.1967 14.6721V14.6727ZM96.1254 14.8545C96.6857 14.7812 97.2191 14.5976 97.7256 14.3002C98.2321 14.0064 98.71 13.616 99.1586 13.1368C99.6066 12.6541 100.025 12.1004 100.411 11.4716C100.722 10.9746 100.995 10.4173 101.244 9.80107C101.487 9.18184 101.688 8.54055 101.848 7.8796C102.008 7.22222 102.116 6.57556 102.179 5.94739C102.237 5.31981 102.232 4.74825 102.173 4.23093C102.058 3.22251 101.766 2.48944 101.308 2.0347C100.849 1.57996 100.175 1.40891 99.2912 1.51738C98.7309 1.59009 98.2106 1.7677 97.7364 2.04841C97.2591 2.32972 96.8344 2.68731 96.4581 3.11822C96.0866 3.54793 95.7766 4.01876 95.5257 4.53906C95.2778 5.05459 95.1028 5.58681 94.9988 6.12797C94.8907 6.6739 94.8728 7.20076 94.9313 7.71331C95 8.19845 95.1386 8.57929 95.3477 8.85523C95.5567 9.13118 95.7998 9.32845 96.0818 9.44705C96.3595 9.56625 96.6349 9.63718 96.9079 9.65148C97.1814 9.67055 97.418 9.66757 97.6109 9.64015C97.9896 9.58473 98.3713 9.41129 98.759 9.11032C99.1424 8.80994 99.508 8.43327 99.8497 7.97674L99.9303 7.99283C99.8664 8.21871 99.7905 8.52982 99.6932 8.91304C99.6006 9.29984 99.4829 9.72955 99.3384 10.1974C99.195 10.6694 99.017 11.145 98.8091 11.6254C98.6013 12.1052 98.354 12.5546 98.0601 12.9753C97.7704 13.3907 97.4317 13.7376 97.0375 14.0183C96.6474 14.2972 96.2001 14.4748 95.6917 14.541C95.3333 14.5809 95.0018 14.5601 94.702 14.4701C94.3979 14.3848 94.1495 14.2496 93.9517 14.0642C93.7582 13.8783 93.6435 13.6607 93.6083 13.4074C93.6011 13.3514 93.6017 13.2858 93.6143 13.2054C93.6268 13.1297 93.6525 13.0564 93.6925 12.9902C93.7331 12.9288 93.7982 12.8901 93.8842 12.8752C93.9619 12.8698 94.0395 12.8913 94.1238 12.933C94.208 12.9795 94.2922 13.0212 94.3854 13.0671C94.4738 13.1088 94.5724 13.1273 94.6763 13.1184C94.8441 13.0933 94.9887 13.0278 95.1111 12.9127C95.2372 12.8007 95.3292 12.6589 95.3913 12.4854C95.4534 12.312 95.4743 12.126 95.4492 11.9234C95.4271 11.7464 95.3566 11.5986 95.2396 11.4639C95.1231 11.334 94.9791 11.2338 94.8005 11.1683C94.6213 11.1027 94.4308 11.0825 94.2187 11.1039C93.9392 11.1421 93.6985 11.2505 93.4888 11.4335C93.2839 11.6159 93.1328 11.8489 93.0313 12.1272C92.9297 12.4062 92.8981 12.7113 92.9339 13.0433C92.9835 13.4438 93.1406 13.796 93.4046 14.091C93.6734 14.3902 94.0336 14.6125 94.4929 14.7526C94.9481 14.8932 95.4952 14.9266 96.1254 14.8539V14.8545ZM97.645 9.26885C97.4198 9.2921 97.24 9.25276 97.1014 9.15621C96.9628 9.05966 96.8601 8.93688 96.7932 8.78312C96.7221 8.63054 96.6815 8.48274 96.6642 8.3403C96.6116 7.879 96.6188 7.36764 96.6904 6.81217C96.7621 6.25731 96.8816 5.69707 97.0494 5.13863C97.2167 4.57661 97.424 4.0569 97.6629 3.57832C97.9018 3.09914 98.1604 2.70877 98.4424 2.40422C98.7243 2.09847 99.014 1.92325 99.3109 1.88272C99.5492 1.85829 99.7404 1.8869 99.8873 1.97808C100.038 2.0645 100.148 2.17774 100.228 2.32495C100.307 2.46858 100.363 2.60983 100.399 2.75406C100.43 2.89889 100.452 3.01392 100.46 3.10451C100.509 3.54018 100.489 4.02293 100.402 4.55336C100.313 5.07962 100.177 5.61185 99.9853 6.15122C99.7971 6.68582 99.5737 7.18467 99.3151 7.64477C99.0606 8.10011 98.787 8.4738 98.4985 8.76703C98.2106 9.05966 97.9293 9.22534 97.6456 9.26885H97.645ZM105.767 13.9486C106.33 13.9045 106.872 13.7495 107.394 13.4789C107.915 13.2119 108.412 12.8472 108.886 12.3924C109.359 11.9335 109.805 11.4025 110.225 10.7952C110.561 10.3148 110.863 9.77246 111.143 9.17051C111.419 8.56499 111.653 7.93562 111.847 7.28301C112.042 6.63457 112.184 5.99447 112.279 5.37047C112.371 4.74706 112.396 4.1761 112.364 3.6564C112.302 2.64381 112.049 1.89643 111.615 1.41785C111.18 0.939865 110.517 0.734247 109.628 0.796231C109.065 0.839738 108.536 0.989928 108.048 1.24501C107.556 1.50129 107.114 1.83624 106.715 2.24688C106.322 2.65692 105.988 3.11047 105.709 3.61646C105.435 4.11829 105.232 4.64097 105.1 5.17618C104.964 5.71614 104.918 6.24121 104.95 6.75615C104.993 7.24427 105.111 7.63166 105.306 7.91774C105.5 8.20441 105.733 8.4142 106.007 8.54711C106.278 8.68001 106.55 8.76583 106.822 8.79444C107.095 8.82782 107.33 8.83735 107.525 8.81947C107.906 8.78431 108.296 8.63054 108.699 8.35043C109.098 8.07031 109.482 7.71331 109.848 7.27526L109.928 7.29612C109.852 7.51842 109.76 7.82476 109.643 8.20262C109.53 8.58406 109.39 9.00662 109.222 9.46672C109.054 9.9304 108.851 10.3965 108.618 10.8649C108.385 11.3328 108.115 11.7696 107.799 12.1737C107.488 12.5736 107.132 12.9026 106.723 13.1613C106.319 13.4199 105.863 13.5731 105.352 13.6136C104.992 13.6345 104.662 13.5969 104.367 13.4909C104.069 13.3901 103.827 13.2417 103.64 13.0462C103.456 12.8502 103.353 12.6273 103.331 12.3722C103.327 12.3162 103.331 12.2506 103.347 12.1713C103.364 12.0962 103.394 12.0247 103.437 11.9604C103.481 11.9008 103.548 11.8662 103.634 11.8555C103.712 11.8543 103.788 11.8799 103.87 11.9258C103.951 11.9764 104.033 12.0229 104.124 12.0736C104.21 12.1201 104.307 12.1433 104.411 12.1403C104.58 12.1248 104.729 12.0664 104.856 11.9574C104.988 11.8525 105.088 11.7148 105.159 11.5449C105.23 11.3745 105.26 11.1903 105.246 10.9865C105.233 10.8089 105.171 10.6575 105.061 10.5169C104.951 10.3816 104.813 10.2737 104.638 10.1986C104.463 10.1241 104.273 10.0937 104.06 10.1044C103.779 10.1283 103.533 10.2236 103.314 10.3953C103.1 10.5669 102.937 10.791 102.821 11.0646C102.705 11.3375 102.656 11.6409 102.675 11.9747C102.703 12.377 102.842 12.7363 103.09 13.0457C103.343 13.358 103.691 13.5993 104.143 13.7632C104.59 13.9277 105.135 13.9891 105.767 13.9498L105.767 13.9486ZM107.577 8.44996C107.351 8.46128 107.173 8.41301 107.04 8.30871C106.906 8.20501 106.81 8.07746 106.751 7.92012C106.688 7.76397 106.656 7.61438 106.645 7.47134C106.617 7.00825 106.651 6.49749 106.752 5.94679C106.853 5.3961 107.001 4.84302 107.198 4.29411C107.396 3.74162 107.629 3.23443 107.893 2.76777C108.157 2.30171 108.436 1.92623 108.733 1.63598C109.03 1.34574 109.329 1.18601 109.627 1.16038C109.867 1.14846 110.056 1.1872 110.198 1.28614C110.345 1.3803 110.449 1.49891 110.52 1.65029C110.591 1.7975 110.641 1.94173 110.668 2.08775C110.692 2.23376 110.708 2.34998 110.711 2.44117C110.737 2.87863 110.692 3.35959 110.577 3.88526C110.461 4.40615 110.297 4.93063 110.078 5.45868C109.861 5.98255 109.612 6.46948 109.33 6.91528C109.052 7.35631 108.759 7.7157 108.456 7.99343C108.153 8.27116 107.863 8.42135 107.577 8.45055L107.577 8.44996ZM123.072 0.111436L121.403 0.140639C120.808 0.896953 120.177 1.64075 119.521 2.36309C118.864 3.08603 118.208 3.80003 117.542 4.49674C116.88 5.19823 116.236 5.88541 115.618 6.56841C114.999 7.24725 114.433 7.92489 113.91 8.59717C113.859 8.66332 113.834 8.73306 113.832 8.8159C113.834 8.89397 113.852 8.96311 113.896 9.02271C113.936 9.0829 113.998 9.11211 114.076 9.11509L117.7 9.05191L116.729 11.6969C116.65 11.8715 116.565 12.0205 116.472 12.1439C116.383 12.2667 116.315 12.337 116.271 12.3549C116.163 12.4002 116.038 12.4419 115.904 12.4783C115.765 12.52 115.605 12.5486 115.41 12.5736C115.219 12.5987 114.989 12.6112 114.711 12.6159C114.659 12.6213 114.615 12.6481 114.582 12.6964C114.548 12.7447 114.532 12.7971 114.532 12.8531C114.534 12.9181 114.543 12.9741 114.57 13.017C114.592 13.06 114.645 13.085 114.719 13.0838C115.053 13.0778 115.357 13.0594 115.634 13.0331C115.908 13.0069 116.182 12.9849 116.455 12.9586C116.723 12.9318 117.023 12.9139 117.349 12.908C117.736 12.9014 118.11 12.908 118.471 12.9235C118.831 12.9384 119.145 12.9509 119.41 12.9676C119.675 12.9849 119.858 12.9944 119.958 12.9926C120.089 12.9861 120.179 12.9497 120.239 12.8794C120.294 12.8132 120.319 12.7435 120.318 12.6738C120.317 12.635 120.304 12.5963 120.277 12.5665C120.251 12.5367 120.211 12.52 120.159 12.5206C120.003 12.5236 119.841 12.5218 119.672 12.5116C119.507 12.5015 119.337 12.4824 119.167 12.4598C119.036 12.4407 118.944 12.3901 118.886 12.3001C118.828 12.2142 118.796 12.1153 118.794 11.9979C118.792 11.8811 118.807 11.7678 118.841 11.6588L119.786 9.01436L121.897 8.97801L121.878 7.88555L120.105 7.91655L123.072 0.11084L123.072 0.111436ZM118.071 7.95231L115.177 8.00296C115.576 7.4624 115.976 6.96952 116.376 6.52491C116.777 6.0803 117.183 5.64761 117.597 5.22862C118.012 4.80964 118.438 4.36384 118.878 3.89241C119.322 3.42038 119.782 2.88757 120.267 2.29396L118.071 7.9529V7.95231ZM130.872 13.321C131.298 13.3359 131.735 13.2817 132.191 13.1625C132.643 13.0397 133.071 12.8633 133.466 12.6255C133.862 12.3877 134.189 12.104 134.44 11.7655C134.695 11.4275 134.83 11.0455 134.854 10.6212C134.857 10.4215 134.776 10.254 134.615 10.114C134.454 9.97808 134.244 9.9018 133.992 9.88868C133.596 9.88332 133.285 9.96795 133.052 10.1509C132.82 10.3297 132.694 10.5639 132.68 10.8584C132.683 11.0449 132.742 11.207 132.859 11.3375C132.981 11.4716 133.122 11.5461 133.282 11.5563C133.374 11.5551 133.443 11.5664 133.494 11.5986C133.54 11.6302 133.564 11.7136 133.559 11.8525C133.556 11.9216 133.51 12.02 133.41 12.1421C133.314 12.2691 133.17 12.399 132.983 12.5307C132.792 12.6583 132.553 12.7673 132.267 12.8531C131.986 12.9431 131.654 12.9795 131.276 12.97C131.003 12.9604 130.757 12.9086 130.539 12.8096C130.315 12.7149 130.142 12.579 130.014 12.4097C129.889 12.2363 129.827 12.0343 129.83 11.8C129.845 11.4883 129.96 11.2017 130.174 10.94C130.387 10.6825 130.67 10.4364 131.012 10.2058C131.359 9.97927 131.737 9.74922 132.149 9.5293C132.561 9.30521 132.97 9.07158 133.383 8.8302C133.795 8.58823 134.175 8.32421 134.523 8.03694C134.868 7.75384 135.149 7.43439 135.37 7.08156C135.587 6.72933 135.706 6.32942 135.725 5.88779C135.727 5.5886 135.632 5.31564 135.428 5.07009C135.228 4.82454 134.965 4.62905 134.64 4.47827C134.315 4.32391 133.966 4.24226 133.592 4.22497C132.97 4.20769 132.437 4.28874 131.984 4.4592C131.53 4.63442 131.178 4.87401 130.923 5.17737C130.674 5.48132 130.54 5.82342 130.523 6.20069C130.518 6.43908 130.581 6.64112 130.706 6.79727C130.835 6.95819 130.997 7.0458 131.197 7.05772C131.54 7.06964 131.825 7.01421 132.042 6.89621C132.264 6.77343 132.379 6.59106 132.396 6.34432C132.401 6.19711 132.375 6.06182 132.323 5.94679C132.27 5.83236 132.194 5.76859 132.103 5.76144C132.025 5.75429 131.962 5.7084 131.917 5.62019C131.876 5.53615 131.853 5.43126 131.858 5.31027C131.87 5.08499 132.016 4.90381 132.294 4.7703C132.573 4.63263 132.95 4.57184 133.423 4.58376C133.709 4.59806 133.929 4.66183 134.09 4.77209C134.252 4.88176 134.36 5.01585 134.424 5.17439C134.488 5.33292 134.517 5.4855 134.508 5.63688C134.492 5.94441 134.383 6.22274 134.179 6.46709C133.975 6.71145 133.705 6.94091 133.372 7.14652C133.043 7.35572 132.679 7.56491 132.289 7.76814C131.895 7.97138 131.5 8.18295 131.106 8.41241C130.711 8.6371 130.345 8.89397 130.014 9.1729C129.677 9.45599 129.41 9.77664 129.201 10.1426C128.989 10.5037 128.874 10.9251 128.853 11.4013C128.845 11.7357 128.93 12.0462 129.108 12.3299C129.285 12.6136 129.524 12.8436 129.831 13.0236C130.137 13.2036 130.487 13.3025 130.873 13.3204L130.872 13.321ZM138.905 13.7716C139.507 13.8151 140.061 13.7328 140.563 13.5201C141.071 13.3031 141.525 13.0033 141.934 12.6124C142.343 12.222 142.7 11.7869 143.013 11.3006C143.321 10.8184 143.586 10.3321 143.799 9.8416C144.012 9.3511 144.179 8.89517 144.299 8.47916C144.418 8.06316 144.486 7.7294 144.509 7.47015C144.548 7.02494 144.505 6.61252 144.373 6.23525C144.24 5.85799 144.005 5.55046 143.67 5.30312C143.338 5.05698 142.893 4.9044 142.33 4.85136C141.711 4.8013 141.138 4.86864 140.608 5.04923C140.077 5.23399 139.592 5.49205 139.156 5.83713C138.72 6.17744 138.328 6.56126 137.99 6.99276C137.651 7.42426 137.364 7.86529 137.124 8.31467C136.883 8.76822 136.697 9.19554 136.566 9.59784C136.43 9.99954 136.352 10.341 136.327 10.6218C136.294 11.0062 136.318 11.3781 136.4 11.7339C136.482 12.0939 136.628 12.4151 136.834 12.7077C137.044 12.9956 137.319 13.2376 137.661 13.4241C138.002 13.6107 138.42 13.7251 138.905 13.7722L138.905 13.7716ZM138.73 13.3901C138.462 13.3627 138.251 13.2745 138.098 13.1261C137.946 12.9783 137.844 12.7953 137.789 12.5772C137.729 12.3585 137.715 12.1314 137.736 11.8936C137.749 11.7464 137.808 11.5169 137.91 11.2034C138.012 10.8899 138.153 10.524 138.329 10.108C138.5 9.69201 138.705 9.25336 138.933 8.79385C139.16 8.3391 139.409 7.89151 139.678 7.45763C139.943 7.02375 140.221 6.63457 140.509 6.28532C140.792 5.94024 141.083 5.66906 141.374 5.47238C141.662 5.27571 141.945 5.1875 142.222 5.20717C142.555 5.24054 142.792 5.33054 142.932 5.47358C143.072 5.61661 143.155 5.77157 143.178 5.94799C143.202 6.1244 143.206 6.27697 143.189 6.41465C143.182 6.50524 143.129 6.70072 143.029 6.99693C142.933 7.29314 142.801 7.66027 142.632 8.08938C142.464 8.5185 142.267 8.97622 142.04 9.46553C141.819 9.95126 141.571 10.4346 141.307 10.9078C141.044 11.3763 140.766 11.8048 140.479 12.1892C140.193 12.5689 139.901 12.8698 139.602 13.0921C139.308 13.3103 139.016 13.411 138.73 13.3901ZM152.224 7.38611C152.241 7.17394 152.23 6.97071 152.196 6.77343C152.166 6.58093 152.081 6.41167 151.942 6.27399C151.805 6.13215 151.585 6.03977 151.288 5.99388C150.848 5.94083 150.358 6.02129 149.823 6.23943C149.287 6.46173 148.747 6.77999 148.2 7.19838C147.649 7.62034 147.139 8.10011 146.662 8.64664C146.181 9.19197 145.785 9.7671 145.459 10.3649C145.133 10.9627 144.927 11.5515 144.842 12.1302C144.788 12.5122 144.788 12.8806 144.846 13.225C144.902 13.5701 145.024 13.8592 145.207 14.0904C145.389 14.3264 145.635 14.4701 145.954 14.5189C146.204 14.5493 146.474 14.5046 146.754 14.386C147.038 14.2686 147.325 14.1029 147.614 13.8848C147.908 13.6679 148.193 13.4235 148.472 13.1553C148.752 12.8841 149.013 12.6183 149.262 12.3466C149.506 12.079 149.72 11.8328 149.91 11.6099C150.099 11.387 150.251 11.2154 150.36 11.0908L147.021 16.481C146.68 17.0334 146.315 17.5382 145.925 17.996C145.536 18.4537 145.113 18.8411 144.659 19.1623C144.207 19.48 143.713 19.7088 143.189 19.8501C142.66 19.9907 142.09 20.0158 141.479 19.9341C141.023 19.8662 140.653 19.7524 140.368 19.5986C140.087 19.4406 139.874 19.2708 139.73 19.0801C139.586 18.8888 139.498 18.7016 139.461 18.5252C139.425 18.35 139.423 18.2087 139.46 18.0961C139.497 17.9876 139.553 17.934 139.627 17.9405C139.669 17.9507 139.731 17.9811 139.807 18.0311C139.883 18.086 139.972 18.1378 140.074 18.1914C140.173 18.2403 140.282 18.2731 140.395 18.2844C140.595 18.2993 140.779 18.2379 140.938 18.1026C141.098 17.9674 141.203 17.7546 141.248 17.4584C141.277 17.2259 141.239 17.0281 141.144 16.8612C141.048 16.6991 140.921 16.5674 140.768 16.4756C140.611 16.379 140.456 16.3224 140.306 16.3016C140.062 16.2807 139.844 16.3069 139.643 16.3927C139.443 16.4744 139.264 16.5894 139.117 16.7307C138.966 16.8713 138.848 17.0209 138.757 17.1747C138.669 17.3285 138.614 17.4655 138.597 17.5859C138.555 17.8207 138.576 18.0776 138.655 18.3559C138.731 18.6295 138.882 18.9001 139.103 19.1677C139.32 19.4341 139.62 19.6647 140.004 19.8674C140.389 20.07 140.86 20.2107 141.428 20.2947C142.436 20.427 143.328 20.4211 144.096 20.2661C144.864 20.1111 145.532 19.8501 146.101 19.4877C146.669 19.1248 147.154 18.7028 147.565 18.2171C147.976 17.7319 148.327 17.2295 148.621 16.7056L154.009 7.42545C154.113 7.25619 154.237 7.14652 154.381 7.08812C154.525 7.03388 154.685 7.0166 154.853 7.04461C154.93 7.05117 154.995 7.02971 155.051 6.97607C155.102 6.9266 155.132 6.86939 155.136 6.81277C155.144 6.75257 155.118 6.7186 155.059 6.70609L153.097 6.43074C153.002 6.4218 152.905 6.45219 152.813 6.51358C152.716 6.57854 152.649 6.65245 152.607 6.72993L152.225 7.38611H152.224ZM151.775 7.58577C151.757 7.71868 151.694 7.91118 151.588 8.16806C151.477 8.42791 151.329 8.72709 151.14 9.07277C150.951 9.41845 150.729 9.78558 150.467 10.1783C150.204 10.5753 149.912 10.9722 149.582 11.3769C149.509 11.4627 149.373 11.6147 149.172 11.8316C148.97 12.0486 148.73 12.2953 148.454 12.5671C148.175 12.8388 147.888 13.1005 147.589 13.352C147.29 13.6035 147.007 13.8085 146.739 13.9641C146.467 14.1184 146.243 14.1834 146.057 14.1661C145.98 14.1512 145.917 14.1029 145.87 14.0261C145.821 13.9444 145.788 13.861 145.767 13.7662C145.748 13.6762 145.742 13.6005 145.749 13.5451C145.775 13.3913 145.865 13.1625 146.016 12.8645C146.168 12.5659 146.355 12.2381 146.578 11.8704C146.8 11.5074 147.031 11.1456 147.27 10.7892C147.509 10.4376 147.728 10.1265 147.929 9.8571C148.433 9.20091 148.861 8.65617 149.212 8.21991C149.563 7.78722 149.857 7.44273 150.087 7.18586C150.32 6.92958 150.514 6.73827 150.662 6.61907C150.811 6.4957 150.941 6.41763 151.046 6.38842C151.147 6.35862 151.249 6.35147 151.343 6.36935C151.443 6.37889 151.528 6.42537 151.609 6.50285C151.69 6.57974 151.747 6.70609 151.784 6.87773C151.821 7.05355 151.818 7.28956 151.776 7.58637L151.775 7.58577ZM161.762 7.93502L159.141 11.8328C158.911 12.1576 158.658 12.4961 158.379 12.8478C158.096 13.1988 157.806 13.5439 157.509 13.8747C157.212 14.2055 156.925 14.507 156.645 14.7705C156.364 15.0339 156.111 15.2401 155.883 15.3849C155.654 15.5297 155.471 15.5941 155.329 15.5739C155.209 15.5482 155.126 15.4761 155.067 15.3557C155.009 15.2353 154.994 15.0965 155.017 14.9379C155.065 14.6906 155.197 14.423 155.406 14.1345C155.616 13.8461 155.87 13.5296 156.164 13.1941C156.458 12.8537 156.76 12.4932 157.062 12.1099C157.364 11.7231 157.636 11.3083 157.872 10.8697C158.109 10.431 158.275 9.96735 158.365 9.47685C158.409 9.22952 158.441 8.97086 158.462 8.70564C158.478 8.43983 158.469 8.18772 158.428 7.94694C158.391 7.71093 158.308 7.5071 158.183 7.34022C158.057 7.17692 157.877 7.07083 157.634 7.02375C157.377 6.98263 157.123 7.02137 156.869 7.1352C156.62 7.24546 156.379 7.41472 156.151 7.62987C155.918 7.84443 155.709 8.08044 155.516 8.34626C155.32 8.6067 155.155 8.86835 155.013 9.12522C154.87 9.38209 154.759 9.60916 154.681 9.80644C154.666 9.86544 154.685 9.90835 154.736 9.94351C154.788 9.97451 154.842 9.98881 154.904 9.9906C154.965 9.99298 155.007 9.97808 155.026 9.9459C155.142 9.68903 155.298 9.40772 155.498 9.09959C155.698 8.79563 155.921 8.50479 156.163 8.23481C156.406 7.96065 156.647 7.74311 156.888 7.57862C157.132 7.41889 157.347 7.35095 157.545 7.37717C157.659 7.40578 157.726 7.47968 157.752 7.60723C157.778 7.73477 157.776 7.87125 157.75 8.02084C157.698 8.28487 157.557 8.59002 157.337 8.9345C157.112 9.28256 156.843 9.65327 156.535 10.0526C156.222 10.4507 155.91 10.8673 155.592 11.2916C155.279 11.7208 155 12.1475 154.761 12.5724C154.527 12.998 154.371 13.4104 154.292 13.8061C154.231 14.1518 154.231 14.4778 154.283 14.7824C154.335 15.0863 154.449 15.3396 154.615 15.5446C154.786 15.7515 155.01 15.8826 155.292 15.9368C155.473 15.9642 155.69 15.9058 155.936 15.764C156.182 15.6221 156.445 15.4266 156.724 15.1722C157.008 14.9135 157.292 14.6292 157.578 14.3139C157.863 13.9986 158.14 13.6774 158.404 13.3585C158.664 13.0343 158.902 12.7369 159.109 12.461L159.131 12.4914L155.676 17.9596C155.316 18.4996 154.933 18.9913 154.528 19.4353C154.123 19.8793 153.687 20.2512 153.223 20.5569C152.758 20.8585 152.258 21.0701 151.729 21.1929C151.195 21.315 150.625 21.3204 150.017 21.2173C149.564 21.1333 149.198 21.0069 148.918 20.8436C148.643 20.6761 148.436 20.4991 148.299 20.303C148.161 20.1076 148.08 19.9168 148.05 19.7398C148.019 19.5628 148.022 19.4222 148.063 19.3113C148.105 19.204 148.163 19.1522 148.236 19.1611C148.278 19.173 148.338 19.2058 148.413 19.2583C148.486 19.3155 148.574 19.3703 148.675 19.4275C148.771 19.4794 148.879 19.5163 148.992 19.5318C149.191 19.5539 149.377 19.4985 149.541 19.3685C149.705 19.2392 149.817 19.0294 149.873 18.7356C149.91 18.5043 149.879 18.3053 149.79 18.1354C149.7 17.9697 149.578 17.8339 149.428 17.7373C149.274 17.6348 149.121 17.5734 148.971 17.5472C148.73 17.518 148.51 17.5365 148.307 17.6151C148.104 17.6896 147.921 17.7981 147.769 17.9346C147.613 18.0699 147.49 18.2153 147.393 18.3655C147.3 18.5163 147.24 18.651 147.219 18.7708C147.169 19.0038 147.182 19.2613 147.251 19.5426C147.317 19.8185 147.458 20.0944 147.67 20.3692C147.877 20.6434 148.17 20.8841 148.547 21.1005C148.924 21.3162 149.39 21.473 149.954 21.5773C150.956 21.7489 151.849 21.7692 152.621 21.641C153.394 21.5129 154.071 21.2757 154.653 20.933C155.234 20.5903 155.733 20.185 156.161 19.7142C156.588 19.2434 156.957 18.7541 157.269 18.2403L163.356 8.21573L161.764 7.93562L161.762 7.93502Z" fill="#E31E24"/>
</g>
<defs>
<clipPath id="clip0_98_51">
<rect width="198" height="88" fill="white"/>
</clipPath>
</defs>
</svg>
