<svg width="46" height="46" viewBox="0 0 46 46" fill="none" xmlns="http://www.w3.org/2000/svg">
<path d="M23 0C13.4855 0 5.75 7.73555 5.75 17.25C5.75 29.9719 21.6613 45.1016 22.3441 45.7395C22.5328 45.9102 22.7664 46 23 46C23.2336 46 23.4762 45.9102 23.6559 45.7395C24.3387 45.1016 40.25 29.9719 40.25 17.25C40.25 7.73555 32.5145 0 23 0ZM23 26.8363C17.7172 26.8363 13.4137 22.5328 13.4137 17.25C13.4137 11.9672 17.7172 7.66367 23 7.66367C28.2828 7.66367 32.5863 11.9672 32.5863 17.25C32.5863 22.5328 28.2828 26.8363 23 26.8363Z" fill="#D5292C"/>
</svg>
