<svg width="42" height="42" viewBox="0 0 42 42" fill="none" xmlns="http://www.w3.org/2000/svg">
<g opacity="0.61">
<path d="M13.1675 40.2258H13.3025C13.4086 40.2258 13.4801 40.294 13.4801 40.3916C13.4801 40.4892 13.4086 40.5574 13.3025 40.5574H13.1675V40.2258ZM13.3006 40.5271C13.3887 40.5271 13.4455 40.4712 13.4455 40.3916C13.4455 40.3121 13.3886 40.2562 13.3006 40.2562H13.2025V40.5271H13.3006Z" fill="white"/>
<path d="M13.8717 40.3915C13.8717 40.2949 13.9455 40.2229 14.046 40.2229C14.1454 40.2229 14.2198 40.2944 14.2198 40.3915C14.2198 40.4886 14.1454 40.5601 14.046 40.5601C13.9456 40.5601 13.8717 40.4882 13.8717 40.3915ZM14.1847 40.3915C14.1847 40.3124 14.1255 40.2541 14.046 40.2541C13.9659 40.2541 13.9063 40.3124 13.9063 40.3915C13.9063 40.4705 13.9659 40.5288 14.046 40.5288C14.1256 40.5288 14.1847 40.4706 14.1847 40.3915Z" fill="white"/>
<path d="M15.0861 40.2258L14.9743 40.5573H14.9373L14.8402 40.2746L14.7427 40.5573H14.7062L14.5944 40.2258H14.6305L14.7261 40.5109L14.8251 40.2258H14.8578L14.9553 40.5123L15.0524 40.2258H15.0861Z" fill="white"/>
<path d="M15.7694 40.2258V40.5573H15.7405L15.5274 40.2883V40.5573H15.4924V40.2258H15.5213L15.7349 40.4948V40.2258H15.7694Z" fill="white"/>
<path d="M16.2198 40.2258H16.2548V40.527H16.4405V40.5573H16.2198V40.2258Z" fill="white"/>
<path d="M16.8051 40.3915C16.8051 40.2949 16.879 40.2229 16.9794 40.2229C17.0789 40.2229 17.1532 40.2944 17.1532 40.3915C17.1532 40.4886 17.0789 40.5601 16.9794 40.5601C16.8791 40.5601 16.8051 40.4882 16.8051 40.3915ZM17.1182 40.3915C17.1182 40.3124 17.059 40.2541 16.9794 40.2541C16.8994 40.2541 16.8398 40.3124 16.8398 40.3915C16.8398 40.4705 16.8994 40.5288 16.9794 40.5288C17.059 40.5288 17.1182 40.4706 17.1182 40.3915Z" fill="white"/>
<path d="M17.7774 40.4687H17.5927L17.5529 40.5572H17.5164L17.668 40.2256H17.7026L17.8541 40.5572H17.8172L17.7774 40.4687ZM17.7647 40.4403L17.6851 40.2622L17.6056 40.4403H17.7647Z" fill="white"/>
<path d="M18.2515 40.2258H18.3865C18.4926 40.2258 18.5641 40.294 18.5641 40.3916C18.5641 40.4891 18.4926 40.5573 18.3865 40.5573H18.2515V40.2258ZM18.3846 40.527C18.4727 40.527 18.5295 40.4711 18.5295 40.3916C18.5295 40.312 18.4726 40.2561 18.3846 40.2561H18.2866V40.527H18.3846Z" fill="white"/>
<path d="M19.6595 40.4687H19.4747L19.4349 40.5572H19.3985L19.55 40.2256H19.5846L19.7361 40.5572H19.6992L19.6595 40.4687ZM19.6467 40.4403L19.5671 40.2622L19.4876 40.4403H19.6467Z" fill="white"/>
<path d="M20.1335 40.2258H20.1686V40.527H20.3542V40.5573H20.1335V40.2258Z" fill="white"/>
<path d="M20.7549 40.2258H20.7899V40.527H20.9756V40.5573H20.7549V40.2258Z" fill="white"/>
<path d="M21.8777 40.2561V40.3864H22.0492V40.4167H21.8777V40.5574H21.8427V40.2258H22.07V40.2562L21.8777 40.2561Z" fill="white"/>
<path d="M22.485 40.2258H22.52V40.5573H22.485V40.2258Z" fill="white"/>
<path d="M22.9703 40.2258H23.0053V40.527H23.191V40.5573H22.9703V40.2258Z" fill="white"/>
<path d="M23.8261 40.527V40.5573H23.5916V40.2258H23.8189V40.2561H23.6267V40.374H23.7981V40.4038H23.6267V40.527H23.8261Z" fill="white"/>
<path d="M24.7525 40.2561V40.3864H24.9239V40.4167H24.7525V40.5574H24.7174V40.2258H24.9447V40.2562L24.7525 40.2561Z" fill="white"/>
<path d="M25.326 40.3915C25.326 40.2949 25.3999 40.2229 25.5003 40.2229C25.5998 40.2229 25.6741 40.2944 25.6741 40.3915C25.6741 40.4886 25.5998 40.5601 25.5003 40.5601C25.3999 40.5601 25.326 40.4882 25.326 40.3915ZM25.639 40.3915C25.639 40.3124 25.5798 40.2541 25.5002 40.2541C25.4202 40.2541 25.3605 40.3124 25.3605 40.3915C25.3605 40.4705 25.4202 40.5288 25.5002 40.5288C25.5799 40.5288 25.639 40.4706 25.639 40.3915Z" fill="white"/>
<path d="M26.3215 40.5573L26.2457 40.4507C26.2372 40.4516 26.2287 40.4521 26.2192 40.4521H26.1302V40.5573H26.0951V40.2258H26.2192C26.3035 40.2258 26.3547 40.2684 26.3547 40.3394C26.3547 40.3915 26.3272 40.428 26.2789 40.4436L26.3599 40.5572H26.3215V40.5573ZM26.3196 40.3394C26.3196 40.2863 26.2845 40.2561 26.2182 40.2561H26.1302V40.4223H26.2182C26.2845 40.4223 26.3196 40.3915 26.3196 40.3394Z" fill="white"/>
<path d="M27.1242 40.2257V40.5573H27.0906V40.292L26.9603 40.5151H26.9438L26.8135 40.2934V40.5572H26.7799V40.2256H26.8088L26.9527 40.4714L27.0953 40.2256L27.1242 40.2257Z" fill="white"/>
<path d="M27.7825 40.4687H27.5978L27.5581 40.5572H27.5216L27.6731 40.2256H27.7077L27.8592 40.5572H27.8222L27.7825 40.4687ZM27.7697 40.4403L27.6902 40.2622L27.6106 40.4403H27.7697Z" fill="white"/>
<path d="M28.3044 40.2561H28.1879V40.2258H28.456V40.2561H28.3395V40.5573H28.3045V40.2561H28.3044Z" fill="white"/>
<path d="M28.8173 40.517L28.8311 40.4901C28.8548 40.5133 28.8969 40.5303 28.9404 40.5303C29.0025 40.5303 29.0295 40.5043 29.0295 40.4716C29.0295 40.3806 28.8254 40.4366 28.8254 40.3139C28.8254 40.2651 28.8632 40.223 28.9476 40.223C28.985 40.223 29.0238 40.2339 29.0504 40.2524L29.0385 40.2803C29.0102 40.2619 28.977 40.2529 28.9476 40.2529C28.8869 40.2529 28.86 40.2798 28.86 40.313C28.86 40.404 29.0641 40.349 29.0641 40.4698C29.0641 40.5186 29.0253 40.5602 28.9404 40.5602C28.8907 40.5601 28.8419 40.5426 28.8173 40.517Z" fill="white"/>
</g>
<path d="M21 2.18207C12.6854 2.18207 5.94562 8.92189 5.94562 17.2365C5.94562 21.3922 7.62948 25.1551 10.3528 27.8792C13.0769 30.6048 19.4946 34.549 19.8709 38.689C19.9273 39.3097 20.3767 39.818 20.9999 39.818C21.6232 39.818 22.0726 39.3097 22.129 38.689C22.5053 34.549 28.923 30.6048 31.6471 27.8792C34.3705 25.1551 36.0542 21.3923 36.0542 17.2365C36.0544 8.92189 29.3146 2.18207 21 2.18207Z" fill="#FF4433"/>
<path d="M21.0001 22.5058C23.9101 22.5058 26.2691 20.1467 26.2691 17.2367C26.2691 14.3267 23.9101 11.9677 21.0001 11.9677C18.0901 11.9677 15.731 14.3267 15.731 17.2367C15.731 20.1467 18.0901 22.5058 21.0001 22.5058Z" fill="white"/>
</svg>
