<svg width="24" height="23" viewBox="0 0 24 23" fill="none" xmlns="http://www.w3.org/2000/svg">
<g clip-path="url(#clip0_2_17)">
<path d="M23.5611 20.2631L18.9159 15.9129C22.3916 11.565 21.4439 5.40262 16.7991 2.149C12.1544 -1.10462 5.57138 -0.217462 2.09565 4.13051C-1.38007 8.47847 -0.43235 14.6408 4.21242 17.8944C7.94349 20.508 13.068 20.508 16.7991 17.8944L21.4463 22.2446C22.0302 22.7913 22.9771 22.7913 23.561 22.2446C24.145 21.6979 24.145 20.8116 23.561 20.265L23.5611 20.2631ZM10.5445 17.0548C6.41646 17.0548 3.07005 13.9222 3.07005 10.058C3.07005 6.1937 6.41646 3.06113 10.5445 3.06113C14.6726 3.06113 18.019 6.1937 18.019 10.058C18.0146 13.9205 14.6707 17.0507 10.5445 17.0548Z" fill="#2B2A29"/>
</g>
<defs>
<clipPath id="clip0_2_17">
<rect width="24" height="22.4664" fill="white" transform="translate(0 0.188232)"/>
</clipPath>
</defs>
</svg>
